<?xml version="1.0" encoding="UTF-8" standalone="no"?>
<svg width="177px" height="117px" viewBox="0 0 177 117" version="1.1" xmlns="http://www.w3.org/2000/svg" xmlns:xlink="http://www.w3.org/1999/xlink" xmlns:sketch="http://www.bohemiancoding.com/sketch/ns">
    <!-- Generator: Sketch Beta 3.3.2 (12041) - http://www.bohemiancoding.com/sketch -->
    <title>Group + Star 1 + Star 1 Copy</title>
    <desc>Created with Sketch Beta.</desc>
    <defs>
        <rect id="path-1" x="0" y="0" width="160" height="100" rx="10"></rect>
    </defs>
    <g id="Page-1" stroke="none" stroke-width="1" fill="none" fill-rule="evenodd" sketch:type="MSPage">
        <g id="Group-+-Star-1-+-Star-1-Copy" sketch:type="MSLayerGroup" transform="translate(3.000000, 0.000000)">
            <g id="Group" transform="translate(0.000000, 14.000000)">
                <g id="Rectangle-1">
                    <use stroke-opacity="0.210427989" stroke="#404D67" stroke-width="3" fill="#1F2A42" fill-rule="evenodd" sketch:type="MSShapeGroup" xlink:href="#path-1"></use>
                    <use stroke="#6376A0" stroke-width="2" fill="none" xlink:href="#path-1"></use>
                </g>
                <path d="M7.99121094,32 L8.53320312,29.8320312 L7.07324219,29.8320312 L7.1953125,29.2265625 L8.68457031,29.2265625 L9.109375,27.5419922 L7.52734375,27.5419922 L7.64941406,26.9414062 L9.25585938,26.9414062 L9.80273438,24.7734375 L10.4228516,24.7734375 L9.88085938,26.9414062 L11.1650391,26.9414062 L11.7070312,24.7734375 L12.3320312,24.7734375 L11.7900391,26.9414062 L13.25,26.9414062 L13.1328125,27.5419922 L11.6386719,27.5419922 L11.2138672,29.2265625 L12.7958984,29.2265625 L12.6738281,29.8320312 L11.0673828,29.8320312 L10.5253906,32 L9.90039062,32 L10.4423828,29.8320312 L9.15820312,29.8320312 L8.61621094,32 L7.99121094,32 Z M9.30957031,29.2265625 L10.59375,29.2265625 L11.0185547,27.5419922 L9.72949219,27.5419922 L9.30957031,29.2265625 Z M21.0966797,32 L17.46875,32 L17.46875,25.6181641 L21.0966797,25.6181641 L21.0966797,26.3505859 L18.3378906,26.3505859 L18.3378906,28.328125 L20.9892578,28.328125 L20.9892578,29.0605469 L18.3378906,29.0605469 L18.3378906,31.2578125 L21.0966797,31.2578125 L21.0966797,32 Z M27.0634766,26.3603516 L25.1738281,26.3603516 L25.1738281,32 L24.2949219,32 L24.2949219,26.3603516 L22.4052734,26.3603516 L22.4052734,25.6181641 L27.0634766,25.6181641 L27.0634766,26.3603516 Z M36.9121094,32 L36.8925781,31.3408203 C36.6256497,31.6044935 36.3546563,31.7949213 36.0795898,31.9121094 C35.8045234,32.0292975 35.5156265,32.0878906 35.2128906,32.0878906 C34.9329413,32.0878906 34.6936859,32.0520837 34.4951172,31.9804688 C34.2965485,31.9088538 34.1329759,31.8103847 34.0043945,31.6850586 C33.8758132,31.5597324 33.7814131,31.4124357 33.7211914,31.2431641 C33.6609698,31.0738924 33.6308594,30.889975 33.6308594,30.6914062 C33.6308594,30.1998673 33.813963,29.8149428 34.1801758,29.5366211 C34.5463885,29.2582994 35.0875615,29.1191406 35.8037109,29.1191406 L36.8193359,29.1191406 L36.8193359,28.6894531 C36.8193359,28.3997381 36.7265634,28.1678069 36.5410156,27.9936523 C36.3554678,27.8194978 36.0722675,27.7324219 35.6914062,27.7324219 C35.4147122,27.7324219 35.1420912,27.763346 34.8735352,27.8251953 C34.6049791,27.8870446 34.3274754,27.9749343 34.0410156,28.0888672 L34.0410156,27.3222656 C34.148438,27.2832029 34.2680657,27.2449546 34.3999023,27.2075195 C34.5317389,27.1700844 34.6708977,27.1367189 34.8173828,27.1074219 C34.9638679,27.0781249 35.1168612,27.0545248 35.2763672,27.0366211 C35.4358732,27.0187174 35.5970044,27.0097656 35.7597656,27.0097656 C36.0559911,27.0097656 36.3229155,27.0423174 36.5605469,27.1074219 C36.7981783,27.1725264 36.9991854,27.2718092 37.1635742,27.4052734 C37.3279631,27.5387376 37.4541011,27.7063792 37.5419922,27.9082031 C37.6298833,28.1100271 37.6738281,28.3476549 37.6738281,28.6210938 L37.6738281,32 L36.9121094,32 Z M36.8193359,29.7685547 L35.7402344,29.7685547 C35.5286448,29.7685547 35.3463549,29.7897133 35.1933594,29.8320312 C35.0403638,29.8743492 34.9150396,29.9345699 34.8173828,30.0126953 C34.7197261,30.0908207 34.6472984,30.184407 34.6000977,30.293457 C34.5528969,30.4025071 34.5292969,30.5253899 34.5292969,30.6621094 C34.5292969,30.7565109 34.5439452,30.846842 34.5732422,30.9331055 C34.6025392,31.0193689 34.6497393,31.0958656 34.7148438,31.1625977 C34.7799482,31.2293298 34.8645828,31.2822264 34.96875,31.3212891 C35.0729172,31.3603518 35.199869,31.3798828 35.3496094,31.3798828 C35.5449229,31.3798828 35.7687162,31.3204759 36.0209961,31.2016602 C36.273276,31.0828445 36.5393866,30.8948581 36.8193359,30.6376953 L36.8193359,29.7685547 Z M43.2109375,31.9316406 C43.0188792,31.980469 42.8203135,32.0154621 42.6152344,32.0366211 C42.4101552,32.0577801 42.201824,32.0683594 41.9902344,32.0683594 C41.3749969,32.0683594 40.9160171,31.9292006 40.6132812,31.6508789 C40.3105454,31.3725572 40.1591797,30.9453154 40.1591797,30.3691406 L40.1591797,27.8105469 L38.7871094,27.8105469 L38.7871094,27.0976562 L40.1591797,27.0976562 L40.1591797,25.75 L41.0087891,25.5302734 L41.0087891,27.0976562 L43.2109375,27.0976562 L43.2109375,27.8105469 L41.0087891,27.8105469 L41.0087891,30.3007812 C41.0087891,30.6523455 41.1023754,30.915201 41.2895508,31.0893555 C41.4767262,31.26351 41.7526023,31.3505859 42.1171875,31.3505859 C42.2734383,31.3505859 42.444335,31.338379 42.6298828,31.3139648 C42.8154306,31.2895507 43.0091136,31.2513023 43.2109375,31.1992188 L43.2109375,31.9316406 Z M54.0849609,32 L50.4570312,32 L50.4570312,25.6181641 L54.0849609,25.6181641 L54.0849609,26.3505859 L51.3261719,26.3505859 L51.3261719,28.328125 L53.9775391,28.328125 L53.9775391,29.0605469 L51.3261719,29.0605469 L51.3261719,31.2578125 L54.0849609,31.2578125 L54.0849609,32 Z M60.0517578,26.3603516 L58.1621094,26.3603516 L58.1621094,32 L57.2832031,32 L57.2832031,26.3603516 L55.3935547,26.3603516 L55.3935547,25.6181641 L60.0517578,25.6181641 L60.0517578,26.3603516 Z M63.1816406,30.4619141 C63.2923183,30.4619141 63.3972977,30.4830727 63.496582,30.5253906 C63.5958664,30.5677085 63.6821285,30.6263017 63.7553711,30.7011719 C63.8286136,30.776042 63.886393,30.863118 63.9287109,30.9624023 C63.9710289,31.0616867 63.9921875,31.1682937 63.9921875,31.2822266 C63.9921875,31.3929042 63.9710289,31.4970698 63.9287109,31.5947266 C63.886393,31.6923833 63.8286136,31.7778317 63.7553711,31.8510742 C63.6821285,31.9243168 63.5958664,31.9820961 63.496582,32.0244141 C63.3972977,32.066732 63.2923183,32.0878906 63.1816406,32.0878906 C63.0677078,32.0878906 62.9619146,32.066732 62.8642578,32.0244141 C62.7666011,31.9820961 62.6811527,31.9243168 62.6079102,31.8510742 C62.5346676,31.7778317 62.4768882,31.6923833 62.4345703,31.5947266 C62.3922524,31.4970698 62.3710938,31.3929042 62.3710938,31.2822266 C62.3710938,31.1682937 62.3922524,31.0616867 62.4345703,30.9624023 C62.4768882,30.863118 62.5346676,30.776042 62.6079102,30.7011719 C62.6811527,30.6263017 62.7666011,30.5677085 62.8642578,30.5253906 C62.9619146,30.4830727 63.0677078,30.4619141 63.1816406,30.4619141 L63.1816406,30.4619141 Z M68.4208984,25.7988281 L66.9707031,25.7988281 L66.9707031,25.1005859 L69.2802734,25.1005859 L69.2802734,31.2919922 L70.7402344,31.2919922 L70.7402344,32 L66.8095703,32 L66.8095703,31.2919922 L68.4208984,31.2919922 L68.4208984,25.7988281 Z M76.5166016,29.5097656 C76.5166016,29.8906269 76.4628912,30.2397445 76.3554688,30.5571289 C76.2480463,30.8745133 76.0934255,31.1463205 75.8916016,31.3725586 C75.6897776,31.5987967 75.4440119,31.7745762 75.1542969,31.8999023 C74.8645819,32.0252285 74.5358091,32.0878906 74.1679688,32.0878906 C73.8164045,32.0878906 73.5014662,32.0333664 73.2231445,31.9243164 C72.9448228,31.8152664 72.7088226,31.654949 72.5151367,31.4433594 C72.3214509,31.2317698 72.1733404,30.9697281 72.0708008,30.6572266 C71.9682612,30.344725 71.9169922,29.9850281 71.9169922,29.578125 C71.9169922,29.1972637 71.9707026,28.8497737 72.078125,28.5356445 C72.1855474,28.2215154 72.3401683,27.9513358 72.5419922,27.7250977 C72.7438161,27.4988595 72.9895819,27.3230801 73.2792969,27.1977539 C73.5690119,27.0724278 73.8977846,27.0097656 74.265625,27.0097656 C74.6171893,27.0097656 74.9321275,27.0642898 75.2104492,27.1733398 C75.4887709,27.2823899 75.7247712,27.4418935 75.918457,27.6518555 C76.1121429,27.8618175 76.2602534,28.1230453 76.362793,28.4355469 C76.4653325,28.7480484 76.5166016,29.1061178 76.5166016,29.5097656 L76.5166016,29.5097656 Z M75.6474609,29.5488281 C75.6474609,29.2460922 75.6140954,28.9816092 75.5473633,28.7553711 C75.4806312,28.529133 75.3854173,28.3403328 75.2617188,28.1889648 C75.1380202,28.0375969 74.9874683,27.9236657 74.8100586,27.847168 C74.6326489,27.7706702 74.4348969,27.7324219 74.2167969,27.7324219 C73.9628894,27.7324219 73.7456064,27.7820633 73.5649414,27.8813477 C73.3842764,27.980632 73.2361659,28.1132804 73.1206055,28.2792969 C73.005045,28.4453133 72.9204104,28.6381825 72.8666992,28.8579102 C72.812988,29.0776378 72.7861328,29.3079415 72.7861328,29.5488281 C72.7861328,29.851564 72.8194984,30.1168608 72.8862305,30.3447266 C72.9529626,30.5725923 73.0481765,30.7622063 73.171875,30.9135742 C73.2955735,31.0649422 73.4453116,31.1788733 73.6210938,31.2553711 C73.7968759,31.3318689 73.9954416,31.3701172 74.2167969,31.3701172 C74.4707044,31.3701172 74.6879874,31.3204758 74.8686523,31.2211914 C75.0493173,31.1219071 75.1974278,30.9892586 75.3129883,30.8232422 C75.4285488,30.6572257 75.5131833,30.4643566 75.5668945,30.2446289 C75.6206057,30.0249012 75.6474609,29.79297 75.6474609,29.5488281 L75.6474609,29.5488281 Z M81.5556641,31.8193359 C81.3343088,31.9039718 81.1072603,31.9666339 80.8745117,32.0073242 C80.6417632,32.0480145 80.4016939,32.0683594 80.1542969,32.0683594 C79.3795534,32.0683594 78.7830425,31.8584005 78.3647461,31.4384766 C77.9464497,31.0185526 77.7373047,30.404952 77.7373047,29.5976562 C77.7373047,29.2102845 77.7975254,28.8587255 77.9179688,28.5429688 C78.0384121,28.227212 78.2076812,27.9570324 78.4257812,27.7324219 C78.6438813,27.5078114 78.9042954,27.3344733 79.2070312,27.2124023 C79.5097671,27.0903314 79.8434227,27.0292969 80.2080078,27.0292969 C80.4619153,27.0292969 80.6995432,27.0472003 80.9208984,27.0830078 C81.1422537,27.1188153 81.3538401,27.1774084 81.5556641,27.2587891 L81.5556641,28.0693359 C81.3440745,27.9586583 81.1284191,27.8780927 80.9086914,27.8276367 C80.6889637,27.7771807 80.4619152,27.7519531 80.2275391,27.7519531 C80.009439,27.7519531 79.8035491,27.7934566 79.6098633,27.8764648 C79.4161774,27.9594731 79.2460945,28.0791008 79.0996094,28.2353516 C78.9531243,28.3916023 78.8375655,28.5820301 78.7529297,28.8066406 C78.6682938,29.0312511 78.6259766,29.2851548 78.6259766,29.5683594 C78.6259766,30.1608103 78.7700181,30.604328 79.0581055,30.8989258 C79.3461928,31.1935236 79.7457657,31.3408203 80.2568359,31.3408203 C80.4879569,31.3408203 80.7117502,31.3147789 80.9282227,31.2626953 C81.1446951,31.2106117 81.3538401,31.1324875 81.5556641,31.0283203 L81.5556641,31.8193359 Z M86.3945312,32 L86.375,31.3408203 C86.1080716,31.6044935 85.8370782,31.7949213 85.5620117,31.9121094 C85.2869452,32.0292975 84.9980484,32.0878906 84.6953125,32.0878906 C84.4153632,32.0878906 84.1761078,32.0520837 83.9775391,31.9804688 C83.7789704,31.9088538 83.6153978,31.8103847 83.4868164,31.6850586 C83.358235,31.5597324 83.2638349,31.4124357 83.2036133,31.2431641 C83.1433916,31.0738924 83.1132812,30.889975 83.1132812,30.6914062 C83.1132812,30.1998673 83.2963849,29.8149428 83.6625977,29.5366211 C84.0288104,29.2582994 84.5699834,29.1191406 85.2861328,29.1191406 L86.3017578,29.1191406 L86.3017578,28.6894531 C86.3017578,28.3997381 86.2089853,28.1678069 86.0234375,27.9936523 C85.8378897,27.8194978 85.5546894,27.7324219 85.1738281,27.7324219 C84.897134,27.7324219 84.6245131,27.763346 84.355957,27.8251953 C84.087401,27.8870446 83.8098973,27.9749343 83.5234375,28.0888672 L83.5234375,27.3222656 C83.6308599,27.2832029 83.7504876,27.2449546 83.8823242,27.2075195 C84.0141608,27.1700844 84.1533196,27.1367189 84.2998047,27.1074219 C84.4462898,27.0781249 84.5992831,27.0545248 84.7587891,27.0366211 C84.9182951,27.0187174 85.0794263,27.0097656 85.2421875,27.0097656 C85.5384129,27.0097656 85.8053374,27.0423174 86.0429688,27.1074219 C86.2806001,27.1725264 86.4816073,27.2718092 86.6459961,27.4052734 C86.8103849,27.5387376 86.936523,27.7063792 87.0244141,27.9082031 C87.1123051,28.1100271 87.15625,28.3476549 87.15625,28.6210938 L87.15625,32 L86.3945312,32 Z M86.3017578,29.7685547 L85.2226562,29.7685547 C85.0110667,29.7685547 84.8287768,29.7897133 84.6757812,29.8320312 C84.5227857,29.8743492 84.3974614,29.9345699 84.2998047,30.0126953 C84.2021479,30.0908207 84.1297203,30.184407 84.0825195,30.293457 C84.0353188,30.4025071 84.0117188,30.5253899 84.0117188,30.6621094 C84.0117188,30.7565109 84.026367,30.846842 84.0556641,30.9331055 C84.0849611,31.0193689 84.1321611,31.0958656 84.1972656,31.1625977 C84.2623701,31.2293298 84.3470047,31.2822264 84.4511719,31.3212891 C84.5553391,31.3603518 84.6822909,31.3798828 84.8320312,31.3798828 C85.0273447,31.3798828 85.2511381,31.3204759 85.503418,31.2016602 C85.7556979,31.0828445 86.0218085,30.8948581 86.3017578,30.6376953 L86.3017578,29.7685547 Z M90.4130859,25.7988281 L88.9628906,25.7988281 L88.9628906,25.1005859 L91.2724609,25.1005859 L91.2724609,31.2919922 L92.7324219,31.2919922 L92.7324219,32 L88.8017578,32 L88.8017578,31.2919922 L90.4130859,31.2919922 L90.4130859,25.7988281 Z M101.40918,27.8007812 L99.9589844,27.8007812 L99.9589844,27.0976562 L102.268555,27.0976562 L102.268555,31.2919922 L103.728516,31.2919922 L103.728516,32 L99.7978516,32 L99.7978516,31.2919922 L101.40918,31.2919922 L101.40918,27.8007812 Z M101.707031,25.0419922 C101.801433,25.0419922 101.889323,25.0590819 101.970703,25.0932617 C102.052084,25.1274416 102.122884,25.1754554 102.183105,25.2373047 C102.243327,25.299154 102.290527,25.369954 102.324707,25.449707 C102.358887,25.52946 102.375977,25.616536 102.375977,25.7109375 C102.375977,25.8020838 102.358887,25.8883459 102.324707,25.9697266 C102.290527,26.0511072 102.243327,26.122721 102.183105,26.1845703 C102.122884,26.2464196 102.052084,26.2944334 101.970703,26.3286133 C101.889323,26.3627931 101.801433,26.3798828 101.707031,26.3798828 C101.61263,26.3798828 101.52474,26.3627931 101.443359,26.3286133 C101.361979,26.2944334 101.291179,26.2464196 101.230957,26.1845703 C101.170735,26.122721 101.123535,26.0511072 101.089355,25.9697266 C101.055176,25.8883459 101.038086,25.8020838 101.038086,25.7109375 C101.038086,25.616536 101.055176,25.52946 101.089355,25.449707 C101.123535,25.369954 101.170735,25.299154 101.230957,25.2373047 C101.291179,25.1754554 101.361979,25.1274416 101.443359,25.0932617 C101.52474,25.0590819 101.61263,25.0419922 101.707031,25.0419922 L101.707031,25.0419922 Z M105.237305,27.0976562 L105.994141,27.0976562 L106.02832,27.8886719 C106.17155,27.7194002 106.309895,27.5786138 106.443359,27.4663086 C106.576824,27.3540033 106.707844,27.2636722 106.836426,27.1953125 C106.965007,27.1269528 107.096028,27.0789389 107.229492,27.0512695 C107.362956,27.0236001 107.501301,27.0097656 107.644531,27.0097656 C108.149091,27.0097656 108.53076,27.1586899 108.789551,27.456543 C109.048341,27.754396 109.177734,28.2027965 109.177734,28.8017578 L109.177734,32 L108.328125,32 L108.328125,28.8701172 C108.328125,28.4860007 108.256511,28.2019866 108.113281,28.0180664 C107.970051,27.8341462 107.756837,27.7421875 107.473633,27.7421875 C107.369466,27.7421875 107.267741,27.7576496 107.168457,27.7885742 C107.069173,27.8194989 106.965821,27.8732093 106.858398,27.949707 C106.750976,28.0262048 106.634603,28.1295566 106.509277,28.2597656 C106.383951,28.3899746 106.243165,28.5527334 106.086914,28.7480469 L106.086914,32 L105.237305,32 L105.237305,27.0976562 Z" id="#-ET-at-ET.local-in" fill="#FFEFEF" sketch:type="MSShapeGroup"></path>
                <path d="M11.0878906,45.8193359 C10.8665354,45.9039718 10.6394868,45.9666339 10.4067383,46.0073242 C10.1739897,46.0480145 9.93392051,46.0683594 9.68652344,46.0683594 C8.91177998,46.0683594 8.31526902,45.8584005 7.89697266,45.4384766 C7.47867629,45.0185526 7.26953125,44.404952 7.26953125,43.5976562 C7.26953125,43.2102845 7.329752,42.8587255 7.45019531,42.5429688 C7.57063862,42.227212 7.73990776,41.9570324 7.95800781,41.7324219 C8.17610786,41.5078114 8.43652192,41.3344733 8.73925781,41.2124023 C9.0419937,41.0903314 9.37564922,41.0292969 9.74023438,41.0292969 C9.99414189,41.0292969 10.2317697,41.0472003 10.453125,41.0830078 C10.6744803,41.1188153 10.8860667,41.1774084 11.0878906,41.2587891 L11.0878906,42.0693359 C10.876301,41.9586583 10.6606456,41.8780927 10.440918,41.8276367 C10.2211903,41.7771807 9.9941418,41.7519531 9.75976562,41.7519531 C9.54166558,41.7519531 9.33577571,41.7934566 9.14208984,41.8764648 C8.94840398,41.9594731 8.77832104,42.0791008 8.63183594,42.2353516 C8.48535083,42.3916023 8.36979209,42.5820301 8.28515625,42.8066406 C8.20052041,43.0312511 8.15820312,43.2851548 8.15820312,43.5683594 C8.15820312,44.1608103 8.30224465,44.604328 8.59033203,44.8989258 C8.87841941,45.1935236 9.27799224,45.3408203 9.7890625,45.3408203 C10.0201834,45.3408203 10.2439768,45.3147789 10.4604492,45.2626953 C10.6769217,45.2106117 10.8860667,45.1324875 11.0878906,45.0283203 L11.0878906,45.8193359 Z M17.0449219,43.5097656 C17.0449219,43.8906269 16.9912115,44.2397445 16.8837891,44.5571289 C16.7763667,44.8745133 16.6217458,45.1463205 16.4199219,45.3725586 C16.2180979,45.5987967 15.9723322,45.7745762 15.6826172,45.8999023 C15.3929022,46.0252285 15.0641294,46.0878906 14.6962891,46.0878906 C14.3447248,46.0878906 14.0297865,46.0333664 13.7514648,45.9243164 C13.4731431,45.8152664 13.2371429,45.654949 13.043457,45.4433594 C12.8497712,45.2317698 12.7016607,44.9697281 12.5991211,44.6572266 C12.4965815,44.344725 12.4453125,43.9850281 12.4453125,43.578125 C12.4453125,43.1972637 12.4990229,42.8497737 12.6064453,42.5356445 C12.7138677,42.2215154 12.8684886,41.9513358 13.0703125,41.7250977 C13.2721364,41.4988595 13.5179022,41.3230801 13.8076172,41.1977539 C14.0973322,41.0724278 14.4261049,41.0097656 14.7939453,41.0097656 C15.1455096,41.0097656 15.4604478,41.0642898 15.7387695,41.1733398 C16.0170912,41.2823899 16.2530915,41.4418935 16.4467773,41.6518555 C16.6404632,41.8618175 16.7885737,42.1230453 16.8911133,42.4355469 C16.9936529,42.7480484 17.0449219,43.1061178 17.0449219,43.5097656 L17.0449219,43.5097656 Z M16.1757812,43.5488281 C16.1757812,43.2460922 16.1424157,42.9816092 16.0756836,42.7553711 C16.0089515,42.529133 15.9137376,42.3403328 15.7900391,42.1889648 C15.6663405,42.0375969 15.5157886,41.9236657 15.3383789,41.847168 C15.1609692,41.7706702 14.9632172,41.7324219 14.7451172,41.7324219 C14.4912097,41.7324219 14.2739267,41.7820633 14.0932617,41.8813477 C13.9125968,41.980632 13.7644863,42.1132804 13.6489258,42.2792969 C13.5333653,42.4453133 13.4487307,42.6381825 13.3950195,42.8579102 C13.3413083,43.0776378 13.3144531,43.3079415 13.3144531,43.5488281 C13.3144531,43.851564 13.3478187,44.1168608 13.4145508,44.3447266 C13.4812829,44.5725923 13.5764968,44.7622063 13.7001953,44.9135742 C13.8238938,45.0649422 13.9736319,45.1788733 14.1494141,45.2553711 C14.3251962,45.3318689 14.5237619,45.3701172 14.7451172,45.3701172 C14.9990247,45.3701172 15.2163077,45.3204758 15.3969727,45.2211914 C15.5776376,45.1219071 15.7257481,44.9892586 15.8413086,44.8232422 C15.9568691,44.6572257 16.0415036,44.4643566 16.0952148,44.2446289 C16.148926,44.0249012 16.1757812,43.79297 16.1757812,43.5488281 L16.1757812,43.5488281 Z M18.2753906,41.0976562 L19.0322266,41.0976562 L19.0664062,41.8886719 C19.2096361,41.7194002 19.3479811,41.5786138 19.4814453,41.4663086 C19.6149095,41.3540033 19.7459303,41.2636722 19.8745117,41.1953125 C20.0030931,41.1269528 20.1341139,41.0789389 20.2675781,41.0512695 C20.4010423,41.0236001 20.5393873,41.0097656 20.6826172,41.0097656 C21.187177,41.0097656 21.5688464,41.1586899 21.8276367,41.456543 C22.0864271,41.754396 22.2158203,42.2027965 22.2158203,42.8017578 L22.2158203,46 L21.3662109,46 L21.3662109,42.8701172 C21.3662109,42.4860007 21.2945971,42.2019866 21.1513672,42.0180664 C21.0081373,41.8341462 20.7949233,41.7421875 20.5117188,41.7421875 C20.4075516,41.7421875 20.3058273,41.7576496 20.206543,41.7885742 C20.1072586,41.8194989 20.0039068,41.8732093 19.8964844,41.949707 C19.789062,42.0262048 19.6726894,42.1295566 19.5473633,42.2597656 C19.4220371,42.3899746 19.2812508,42.5527334 19.125,42.7480469 L19.125,46 L18.2753906,46 L18.2753906,41.0976562 Z M27.6552734,44.6621094 C27.6552734,44.8346363 27.6259769,44.9892571 27.5673828,45.1259766 C27.5087888,45.262696 27.429037,45.3839513 27.328125,45.4897461 C27.227213,45.5955409 27.1100267,45.685872 26.9765625,45.7607422 C26.8430983,45.8356124 26.7006844,45.8974607 26.5493164,45.9462891 C26.3979485,45.9951174 26.2425138,46.0309244 26.0830078,46.0537109 C25.9235018,46.0764975 25.7672534,46.0878906 25.6142578,46.0878906 C25.2822249,46.0878906 24.9770522,46.0732423 24.6987305,46.0439453 C24.4204088,46.0146483 24.1477878,45.9674482 23.8808594,45.9023438 L23.8808594,45.1210938 C24.1673191,45.2024744 24.452147,45.2643227 24.7353516,45.3066406 C25.0185561,45.3489585 25.3001288,45.3701172 25.5800781,45.3701172 C25.9869812,45.3701172 26.288085,45.3147792 26.4833984,45.2041016 C26.6787119,45.0934239 26.7763672,44.9355479 26.7763672,44.7304688 C26.7763672,44.6425777 26.7609051,44.5636397 26.7299805,44.4936523 C26.6990558,44.423665 26.6429041,44.3569339 26.5615234,44.293457 C26.4801428,44.2299802 26.3540048,44.1640628 26.1831055,44.0957031 C26.0122062,44.0273434 25.7786473,43.9492192 25.4824219,43.8613281 C25.2610666,43.7962236 25.0568043,43.7221684 24.8696289,43.6391602 C24.6824535,43.5561519 24.5205085,43.4576829 24.3837891,43.34375 C24.2470696,43.2298171 24.1396488,43.0963549 24.0615234,42.9433594 C23.983398,42.7903638 23.9443359,42.6097016 23.9443359,42.4013672 C23.9443359,42.2646478 23.9760739,42.1149097 24.0395508,41.9521484 C24.1030277,41.7893872 24.2112623,41.6380215 24.3642578,41.4980469 C24.5172534,41.3580722 24.723957,41.2416997 24.984375,41.1489258 C25.244793,41.0561519 25.5703105,41.0097656 25.9609375,41.0097656 C26.1529958,41.0097656 26.3662098,41.0203449 26.6005859,41.0415039 C26.8349621,41.0626629 27.0791003,41.0992836 27.3330078,41.1513672 L27.3330078,41.9082031 C27.0660794,41.8430986 26.8129895,41.7950848 26.5737305,41.7641602 C26.3344715,41.7332355 26.126954,41.7177734 25.9511719,41.7177734 C25.7395823,41.7177734 25.5613614,41.7340493 25.4165039,41.7666016 C25.2716464,41.7991538 25.1544601,41.8439125 25.0649414,41.9008789 C24.9754227,41.9578453 24.911133,42.0245764 24.8720703,42.1010742 C24.8330076,42.177572 24.8134766,42.2597652 24.8134766,42.3476562 C24.8134766,42.4355473 24.8305662,42.5152991 24.8647461,42.5869141 C24.898926,42.658529 24.9624019,42.7277015 25.0551758,42.7944336 C25.1479497,42.8611657 25.2773429,42.9278968 25.4433594,42.9946289 C25.6093758,43.061361 25.825845,43.1337887 26.0927734,43.2119141 C26.3824884,43.2965499 26.6266266,43.3852534 26.8251953,43.4780273 C27.023764,43.5708012 27.1848952,43.6741531 27.3085938,43.7880859 C27.4322923,43.9020188 27.5209958,44.0305982 27.574707,44.1738281 C27.6284182,44.317058 27.6552734,44.4798168 27.6552734,44.6621094 L27.6552734,44.6621094 Z M33.5390625,43.5097656 C33.5390625,43.8906269 33.4853521,44.2397445 33.3779297,44.5571289 C33.2705073,44.8745133 33.1158864,45.1463205 32.9140625,45.3725586 C32.7122386,45.5987967 32.4664728,45.7745762 32.1767578,45.8999023 C31.8870428,46.0252285 31.5582701,46.0878906 31.1904297,46.0878906 C30.8388654,46.0878906 30.5239272,46.0333664 30.2456055,45.9243164 C29.9672838,45.8152664 29.7312835,45.654949 29.5375977,45.4433594 C29.3439118,45.2317698 29.1958013,44.9697281 29.0932617,44.6572266 C28.9907221,44.344725 28.9394531,43.9850281 28.9394531,43.578125 C28.9394531,43.1972637 28.9931635,42.8497737 29.1005859,42.5356445 C29.2080083,42.2215154 29.3626292,41.9513358 29.5644531,41.7250977 C29.7662771,41.4988595 30.0120428,41.3230801 30.3017578,41.1977539 C30.5914728,41.0724278 30.9202456,41.0097656 31.2880859,41.0097656 C31.6396502,41.0097656 31.9545885,41.0642898 32.2329102,41.1733398 C32.5112319,41.2823899 32.7472321,41.4418935 32.940918,41.6518555 C33.1346038,41.8618175 33.2827143,42.1230453 33.3852539,42.4355469 C33.4877935,42.7480484 33.5390625,43.1061178 33.5390625,43.5097656 L33.5390625,43.5097656 Z M32.6699219,43.5488281 C32.6699219,43.2460922 32.6365563,42.9816092 32.5698242,42.7553711 C32.5030921,42.529133 32.4078782,42.3403328 32.2841797,42.1889648 C32.1604812,42.0375969 32.0099293,41.9236657 31.8325195,41.847168 C31.6551098,41.7706702 31.4573579,41.7324219 31.2392578,41.7324219 C30.9853503,41.7324219 30.7680673,41.7820633 30.5874023,41.8813477 C30.4067374,41.980632 30.2586269,42.1132804 30.1430664,42.2792969 C30.0275059,42.4453133 29.9428714,42.6381825 29.8891602,42.8579102 C29.835449,43.0776378 29.8085938,43.3079415 29.8085938,43.5488281 C29.8085938,43.851564 29.8419593,44.1168608 29.9086914,44.3447266 C29.9754235,44.5725923 30.0706374,44.7622063 30.1943359,44.9135742 C30.3180345,45.0649422 30.4677726,45.1788733 30.6435547,45.2553711 C30.8193368,45.3318689 31.0179025,45.3701172 31.2392578,45.3701172 C31.4931653,45.3701172 31.7104483,45.3204758 31.8911133,45.2211914 C32.0717782,45.1219071 32.2198887,44.9892586 32.3354492,44.8232422 C32.4510097,44.6572257 32.5356443,44.4643566 32.5893555,44.2446289 C32.6430667,44.0249012 32.6699219,43.79297 32.6699219,43.5488281 L32.6699219,43.5488281 Z M36.4394531,39.7988281 L34.9892578,39.7988281 L34.9892578,39.1005859 L37.2988281,39.1005859 L37.2988281,45.2919922 L38.7587891,45.2919922 L38.7587891,46 L34.828125,46 L34.828125,45.2919922 L36.4394531,45.2919922 L36.4394531,39.7988281 Z M44.4082031,43.2900391 C44.4082031,43.4104824 44.4065755,43.5113928 44.4033203,43.5927734 C44.4000651,43.6741541 44.3951823,43.7506507 44.3886719,43.8222656 L40.9462891,43.8222656 C40.9462891,44.3235702 41.0862616,44.7084948 41.3662109,44.9770508 C41.6461603,45.2456068 42.0498021,45.3798828 42.5771484,45.3798828 C42.7203783,45.3798828 42.8636061,45.3741863 43.0068359,45.362793 C43.1500658,45.3513997 43.2884108,45.3359376 43.421875,45.3164062 C43.5553392,45.2968749 43.6831049,45.2749025 43.8051758,45.2504883 C43.9272467,45.2260741 44.0403641,45.1992189 44.1445312,45.1699219 L44.1445312,45.8681641 C43.9134103,45.9332686 43.6521824,45.9861652 43.3608398,46.0268555 C43.0694972,46.0675458 42.7675797,46.0878906 42.4550781,46.0878906 C42.0351542,46.0878906 41.6738296,46.030925 41.3710938,45.9169922 C41.0683579,45.8030593 40.8201507,45.6378592 40.6264648,45.4213867 C40.432779,45.2049143 40.2895512,44.9396175 40.1967773,44.6254883 C40.1040034,44.3113591 40.0576172,43.9557312 40.0576172,43.5585938 C40.0576172,43.2135399 40.1072586,42.8872086 40.206543,42.5795898 C40.3058273,42.2719711 40.4506826,42.0017915 40.6411133,41.769043 C40.8315439,41.5362944 41.0651028,41.3515632 41.3417969,41.2148438 C41.618491,41.0781243 41.9326154,41.0097656 42.2841797,41.0097656 C42.6259783,41.0097656 42.9287096,41.063476 43.1923828,41.1708984 C43.456056,41.2783208 43.6782218,41.4305003 43.8588867,41.6274414 C44.0395517,41.8243825 44.1762691,42.0636379 44.269043,42.3452148 C44.3618169,42.6267918 44.4082031,42.94173 44.4082031,43.2900391 L44.4082031,43.2900391 Z M43.5244141,43.1679688 C43.5341797,42.9498687 43.5130211,42.7504892 43.4609375,42.5698242 C43.4088539,42.3891593 43.3282883,42.2337246 43.2192383,42.1035156 C43.1101883,41.9733066 42.9742847,41.8715824 42.8115234,41.7983398 C42.6487622,41.7250973 42.459962,41.6884766 42.2451172,41.6884766 C42.0595694,41.6884766 41.8903002,41.7242835 41.7373047,41.7958984 C41.5843091,41.8675134 41.4524745,41.9684238 41.3417969,42.0986328 C41.2311192,42.2288418 41.1416019,42.3850902 41.0732422,42.5673828 C41.0048825,42.7496754 40.9625652,42.9498687 40.9462891,43.1679688 L43.5244141,43.1679688 Z M47.6943359,44.4619141 C47.8050136,44.4619141 47.909993,44.4830727 48.0092773,44.5253906 C48.1085617,44.5677085 48.1948239,44.6263017 48.2680664,44.7011719 C48.341309,44.776042 48.3990883,44.863118 48.4414062,44.9624023 C48.4837242,45.0616867 48.5048828,45.1682937 48.5048828,45.2822266 C48.5048828,45.3929042 48.4837242,45.4970698 48.4414062,45.5947266 C48.3990883,45.6923833 48.341309,45.7778317 48.2680664,45.8510742 C48.1948239,45.9243168 48.1085617,45.9820961 48.0092773,46.0244141 C47.909993,46.066732 47.8050136,46.0878906 47.6943359,46.0878906 C47.5804031,46.0878906 47.4746099,46.066732 47.3769531,46.0244141 C47.2792964,45.9820961 47.193848,45.9243168 47.1206055,45.8510742 C47.0473629,45.7778317 46.9895835,45.6923833 46.9472656,45.5947266 C46.9049477,45.4970698 46.8837891,45.3929042 46.8837891,45.2822266 C46.8837891,45.1682937 46.9049477,45.0616867 46.9472656,44.9624023 C46.9895835,44.863118 47.0473629,44.776042 47.1206055,44.7011719 C47.193848,44.6263017 47.2792964,44.5677085 47.3769531,44.5253906 C47.4746099,44.4830727 47.5804031,44.4619141 47.6943359,44.4619141 L47.6943359,44.4619141 Z M52.9335938,39.7988281 L51.4833984,39.7988281 L51.4833984,39.1005859 L53.7929688,39.1005859 L53.7929688,45.2919922 L55.2529297,45.2919922 L55.2529297,46 L51.3222656,46 L51.3222656,45.2919922 L52.9335938,45.2919922 L52.9335938,39.7988281 Z M61.0292969,43.5097656 C61.0292969,43.8906269 60.9755865,44.2397445 60.8681641,44.5571289 C60.7607417,44.8745133 60.6061208,45.1463205 60.4042969,45.3725586 C60.2024729,45.5987967 59.9567072,45.7745762 59.6669922,45.8999023 C59.3772772,46.0252285 59.0485044,46.0878906 58.6806641,46.0878906 C58.3290998,46.0878906 58.0141615,46.0333664 57.7358398,45.9243164 C57.4575181,45.8152664 57.2215179,45.654949 57.027832,45.4433594 C56.8341462,45.2317698 56.6860357,44.9697281 56.5834961,44.6572266 C56.4809565,44.344725 56.4296875,43.9850281 56.4296875,43.578125 C56.4296875,43.1972637 56.4833979,42.8497737 56.5908203,42.5356445 C56.6982427,42.2215154 56.8528636,41.9513358 57.0546875,41.7250977 C57.2565114,41.4988595 57.5022772,41.3230801 57.7919922,41.1977539 C58.0817072,41.0724278 58.4104799,41.0097656 58.7783203,41.0097656 C59.1298846,41.0097656 59.4448228,41.0642898 59.7231445,41.1733398 C60.0014662,41.2823899 60.2374665,41.4418935 60.4311523,41.6518555 C60.6248382,41.8618175 60.7729487,42.1230453 60.8754883,42.4355469 C60.9780279,42.7480484 61.0292969,43.1061178 61.0292969,43.5097656 L61.0292969,43.5097656 Z M60.1601562,43.5488281 C60.1601562,43.2460922 60.1267907,42.9816092 60.0600586,42.7553711 C59.9933265,42.529133 59.8981126,42.3403328 59.7744141,42.1889648 C59.6507155,42.0375969 59.5001636,41.9236657 59.3227539,41.847168 C59.1453442,41.7706702 58.9475922,41.7324219 58.7294922,41.7324219 C58.4755847,41.7324219 58.2583017,41.7820633 58.0776367,41.8813477 C57.8969718,41.980632 57.7488613,42.1132804 57.6333008,42.2792969 C57.5177403,42.4453133 57.4331057,42.6381825 57.3793945,42.8579102 C57.3256833,43.0776378 57.2988281,43.3079415 57.2988281,43.5488281 C57.2988281,43.851564 57.3321937,44.1168608 57.3989258,44.3447266 C57.4656579,44.5725923 57.5608718,44.7622063 57.6845703,44.9135742 C57.8082688,45.0649422 57.9580069,45.1788733 58.1337891,45.2553711 C58.3095712,45.3318689 58.5081369,45.3701172 58.7294922,45.3701172 C58.9833997,45.3701172 59.2006827,45.3204758 59.3813477,45.2211914 C59.5620126,45.1219071 59.7101231,44.9892586 59.8256836,44.8232422 C59.9412441,44.6572257 60.0258786,44.4643566 60.0795898,44.2446289 C60.133301,44.0249012 60.1601562,43.79297 60.1601562,43.5488281 L60.1601562,43.5488281 Z M65.7900391,41.7910156 C65.8811854,41.9049485 65.9519854,42.0375969 66.0024414,42.1889648 C66.0528974,42.3403328 66.078125,42.5039054 66.078125,42.6796875 C66.078125,42.933595 66.0317387,43.1655263 65.9389648,43.3754883 C65.8461909,43.5854503 65.7151701,43.7652987 65.5458984,43.9150391 C65.3766268,44.0647794 65.1739921,44.1811519 64.9379883,44.2641602 C64.7019845,44.3471684 64.4423842,44.3886719 64.1591797,44.3886719 C63.9541005,44.3886719 63.7620452,44.3666994 63.5830078,44.3227539 C63.4039705,44.2788084 63.2623703,44.2242842 63.1582031,44.1591797 C63.0963539,44.250326 63.044271,44.3365881 63.0019531,44.4179688 C62.9596352,44.4993494 62.9384766,44.5904943 62.9384766,44.6914062 C62.9384766,44.8151048 62.9978835,44.9176428 63.1166992,44.9990234 C63.2355149,45.0804041 63.3925771,45.1243489 63.5878906,45.1308594 L64.8769531,45.1796875 C65.121095,45.1861979 65.3465159,45.2171221 65.5532227,45.2724609 C65.7599294,45.3277998 65.9373365,45.4075516 66.0854492,45.5117188 C66.2335619,45.6158859 66.3491207,45.7444654 66.4321289,45.8974609 C66.5151371,46.0504565 66.5566406,46.2278636 66.5566406,46.4296875 C66.5566406,46.6477875 66.5094406,46.8544912 66.4150391,47.0498047 C66.3206375,47.2451182 66.1749684,47.4168287 65.9780273,47.5649414 C65.7810863,47.7130541 65.5312515,47.8310542 65.2285156,47.9189453 C64.9257797,48.0068364 64.5660828,48.0507812 64.1494141,48.0507812 C63.7522767,48.0507812 63.4145522,48.0190433 63.1362305,47.9555664 C62.8579088,47.8920895 62.6292327,47.8041998 62.4501953,47.6918945 C62.271158,47.5795893 62.1409509,47.4461271 62.0595703,47.2915039 C61.9781897,47.1368807 61.9375,46.9667978 61.9375,46.78125 C61.9375,46.5436186 61.992838,46.3352874 62.1035156,46.15625 C62.2141933,45.9772126 62.38509,45.8046883 62.6162109,45.6386719 C62.5315751,45.5996092 62.4583336,45.5507815 62.3964844,45.4921875 C62.3346351,45.4335935 62.2841799,45.3693037 62.2451172,45.2993164 C62.2060545,45.2293291 62.1767579,45.1552738 62.1572266,45.0771484 C62.1376952,44.999023 62.1279297,44.9225264 62.1279297,44.8476562 C62.1279297,44.6360667 62.1775711,44.4423837 62.2768555,44.2666016 C62.3761398,44.0908194 62.4941399,43.9248055 62.6308594,43.7685547 C62.5690101,43.6936845 62.5144859,43.6204431 62.4672852,43.5488281 C62.4200844,43.4772132 62.3793947,43.3999028 62.3452148,43.3168945 C62.311035,43.2338863 62.2849936,43.144369 62.2670898,43.0483398 C62.2491861,42.9523107 62.2402344,42.8424485 62.2402344,42.71875 C62.2402344,42.4648425 62.2866206,42.2329112 62.3793945,42.0229492 C62.4721684,41.8129872 62.6023755,41.6331388 62.7700195,41.4833984 C62.9376636,41.3336581 63.1394845,41.2172856 63.3754883,41.1342773 C63.6114921,41.0512691 63.8727199,41.0097656 64.1591797,41.0097656 C64.279623,41.0097656 64.3951817,41.0179036 64.5058594,41.0341797 C64.616537,41.0504558 64.7141923,41.0716145 64.7988281,41.0976562 L66.5761719,41.0976562 L66.5761719,41.7910156 L65.7900391,41.7910156 Z M62.8408203,46.7080078 C62.8408203,46.9391288 62.9612618,47.1075841 63.2021484,47.2133789 C63.4430351,47.3191737 63.7783182,47.3720703 64.2080078,47.3720703 C64.4781915,47.3720703 64.70524,47.3476565 64.8891602,47.2988281 C65.0730803,47.2499998 65.2211908,47.18571 65.3334961,47.105957 C65.4458013,47.026204 65.5263669,46.9350591 65.5751953,46.8325195 C65.6240237,46.72998 65.6484375,46.6250005 65.6484375,46.5175781 C65.6484375,46.3190094 65.5670581,46.1725265 65.4042969,46.078125 C65.2415356,45.9837235 64.9925147,45.9283855 64.6572266,45.9121094 L63.3779297,45.8681641 C63.2705073,45.939779 63.1818037,46.0097653 63.1118164,46.078125 C63.0418291,46.1464847 62.9873049,46.2156572 62.9482422,46.2856445 C62.9091795,46.3556319 62.8815105,46.4256181 62.8652344,46.4956055 C62.8489583,46.5655928 62.8408203,46.6363929 62.8408203,46.7080078 L62.8408203,46.7080078 Z M63.0996094,42.6992188 C63.0996094,42.8554695 63.1256508,42.9986973 63.1777344,43.1289062 C63.229818,43.2591152 63.3030594,43.3697912 63.3974609,43.4609375 C63.4918625,43.5520838 63.6033522,43.6228839 63.7319336,43.6733398 C63.860515,43.7237958 64.0029289,43.7490234 64.1591797,43.7490234 C64.3284514,43.7490234 64.4790032,43.7205406 64.6108398,43.6635742 C64.7426764,43.6066078 64.8533524,43.5292974 64.9428711,43.4316406 C65.0323898,43.3339839 65.1007485,43.2216803 65.1479492,43.0947266 C65.19515,42.9677728 65.21875,42.8359382 65.21875,42.6992188 C65.21875,42.542968 65.1927086,42.3997402 65.140625,42.2695312 C65.0885414,42.1393223 65.0153,42.0286463 64.9208984,41.9375 C64.8264969,41.8463537 64.7150072,41.7755536 64.5864258,41.7250977 C64.4578444,41.6746417 64.3154305,41.6494141 64.1591797,41.6494141 C63.989908,41.6494141 63.8393561,41.6787106 63.7075195,41.7373047 C63.5756829,41.7958987 63.465007,41.8732092 63.3754883,41.9692383 C63.2859696,42.0652674 63.2176109,42.1767572 63.1704102,42.3037109 C63.1232094,42.4306647 63.0996094,42.5624993 63.0996094,42.6992188 L63.0996094,42.6992188 Z M70.6923828,48.0507812 C69.1917243,46.6608003 68.4414062,45.1243574 68.4414062,43.4414062 C68.4414062,43.0475241 68.4812822,42.6544616 68.5610352,42.262207 C68.6407882,41.8699525 68.7693676,41.47689 68.9467773,41.0830078 C69.1241871,40.6891256 69.3585597,40.2952494 69.6499023,39.9013672 C69.9412449,39.507485 70.2952453,39.1168639 70.7119141,38.7294922 L71.2050781,39.2324219 C69.942051,40.4791729 69.3105469,41.860995 69.3105469,43.3779297 C69.3105469,44.1331418 69.4700505,44.859046 69.7890625,45.5556641 C70.1080745,46.2522821 70.580075,46.9098276 71.2050781,47.5283203 L70.6923828,48.0507812 Z M73.4560547,41.0976562 L74.2324219,41.0976562 L74.2568359,42.0009766 C74.5465509,41.6526675 74.8321926,41.4003914 75.1137695,41.2441406 C75.3953465,41.0878898 75.6793605,41.0097656 75.9658203,41.0097656 C76.4736354,41.0097656 76.8585599,41.174152 77.1206055,41.5029297 C77.382651,41.8317074 77.5039063,42.3199837 77.484375,42.9677734 L76.625,42.9677734 C76.6347657,42.5380838 76.5721035,42.2264007 76.4370117,42.0327148 C76.3019199,41.839029 76.104168,41.7421875 75.84375,41.7421875 C75.7298171,41.7421875 75.6150722,41.7625323 75.4995117,41.8032227 C75.3839512,41.843913 75.2651373,41.9090165 75.1430664,41.9985352 C75.0209955,42.0880538 74.8916022,42.2027988 74.7548828,42.3427734 C74.6181634,42.4827481 74.4716805,42.6520172 74.3154297,42.8505859 L74.3154297,46 L73.4560547,46 L73.4560547,41.0976562 Z M82.8945312,43.2900391 C82.8945312,43.4104824 82.8929037,43.5113928 82.8896484,43.5927734 C82.8863932,43.6741541 82.8815104,43.7506507 82.875,43.8222656 L79.4326172,43.8222656 C79.4326172,44.3235702 79.5725897,44.7084948 79.8525391,44.9770508 C80.1324884,45.2456068 80.5361302,45.3798828 81.0634766,45.3798828 C81.2067064,45.3798828 81.3499342,45.3741863 81.4931641,45.362793 C81.6363939,45.3513997 81.7747389,45.3359376 81.9082031,45.3164062 C82.0416673,45.2968749 82.169433,45.2749025 82.2915039,45.2504883 C82.4135748,45.2260741 82.5266922,45.1992189 82.6308594,45.1699219 L82.6308594,45.8681641 C82.3997384,45.9332686 82.1385106,45.9861652 81.847168,46.0268555 C81.5558254,46.0675458 81.2539078,46.0878906 80.9414062,46.0878906 C80.5214823,46.0878906 80.1601578,46.030925 79.8574219,45.9169922 C79.554686,45.8030593 79.3064788,45.6378592 79.112793,45.4213867 C78.9191071,45.2049143 78.7758794,44.9396175 78.6831055,44.6254883 C78.5903316,44.3113591 78.5439453,43.9557312 78.5439453,43.5585938 C78.5439453,43.2135399 78.5935867,42.8872086 78.6928711,42.5795898 C78.7921554,42.2719711 78.9370108,42.0017915 79.1274414,41.769043 C79.317872,41.5362944 79.5514309,41.3515632 79.828125,41.2148438 C80.1048191,41.0781243 80.4189436,41.0097656 80.7705078,41.0097656 C81.1123064,41.0097656 81.4150377,41.063476 81.6787109,41.1708984 C81.9423841,41.2783208 82.1645499,41.4305003 82.3452148,41.6274414 C82.5258798,41.8243825 82.6625972,42.0636379 82.7553711,42.3452148 C82.848145,42.6267918 82.8945312,42.94173 82.8945312,43.2900391 L82.8945312,43.2900391 Z M82.0107422,43.1679688 C82.0205079,42.9498687 81.9993492,42.7504892 81.9472656,42.5698242 C81.895182,42.3891593 81.8146164,42.2337246 81.7055664,42.1035156 C81.5965164,41.9733066 81.4606128,41.8715824 81.2978516,41.7983398 C81.1350903,41.7250973 80.9462901,41.6884766 80.7314453,41.6884766 C80.5458975,41.6884766 80.3766284,41.7242835 80.2236328,41.7958984 C80.0706373,41.8675134 79.9388026,41.9684238 79.828125,42.0986328 C79.7174474,42.2288418 79.62793,42.3850902 79.5595703,42.5673828 C79.4912106,42.7496754 79.4488933,42.9498687 79.4326172,43.1679688 L82.0107422,43.1679688 Z M84.0029297,43.6513672 C84.0029297,43.2998029 84.0493159,42.9661474 84.1420898,42.6503906 C84.2348637,42.3346338 84.3780915,42.0571301 84.5717773,41.8178711 C84.7654632,41.5786121 85.0136704,41.3889981 85.3164062,41.2490234 C85.6191421,41.1090488 85.9804667,41.0390625 86.4003906,41.0390625 C86.5664071,41.0390625 86.7307935,41.0520832 86.8935547,41.078125 C87.0563159,41.1041668 87.2288402,41.1448565 87.4111328,41.2001953 L88.1630859,41.0097656 L88.1630859,48.0019531 L87.3085938,48.0019531 L87.3085938,46.1513672 L87.3525391,45.1015625 C86.8902972,45.7591179 86.3401725,46.0878906 85.7021484,46.0878906 C85.4156887,46.0878906 85.1666677,46.0292975 84.9550781,45.9121094 C84.7434885,45.7949213 84.5668952,45.6289073 84.425293,45.4140625 C84.2836907,45.1992177 84.1778975,44.9420588 84.1079102,44.6425781 C84.0379228,44.3430975 84.0029297,44.0126971 84.0029297,43.6513672 L84.0029297,43.6513672 Z M84.8720703,43.5976562 C84.8720703,43.8710951 84.8924152,44.1168609 84.9331055,44.3349609 C84.9737958,44.553061 85.0356441,44.7377922 85.1186523,44.8891602 C85.2016606,45.0405281 85.3058262,45.1569006 85.4311523,45.2382812 C85.5564785,45.3196619 85.7037752,45.3603516 85.8730469,45.3603516 C86.0878917,45.3603516 86.3149402,45.2643239 86.5541992,45.0722656 C86.7934582,44.8802074 87.0449206,44.5953795 87.3085938,44.2177734 L87.3085938,41.9423828 C87.1783848,41.8805335 87.0310881,41.8300783 86.8666992,41.7910156 C86.7023104,41.7519529 86.5273447,41.7324219 86.3417969,41.7324219 C85.8632789,41.7324219 85.4986992,41.8902979 85.2480469,42.2060547 C84.9973946,42.5218115 84.8720703,42.985674 84.8720703,43.5976562 L84.8720703,43.5976562 Z M93.6904297,46 L92.9287109,46 L92.8994141,45.2089844 C92.752929,45.3782561 92.6137702,45.5190424 92.4819336,45.6313477 C92.350097,45.7436529 92.2190762,45.833984 92.0888672,45.9023438 C91.9586582,45.9707035 91.8276374,46.0187173 91.6958008,46.0463867 C91.5639642,46.0740561 91.4248054,46.0878906 91.2783203,46.0878906 C90.7737605,46.0878906 90.3929049,45.9397801 90.1357422,45.6435547 C89.8785794,45.3473292 89.75,44.8997426 89.75,44.3007812 L89.75,41.0976562 L90.5996094,41.0976562 L90.5996094,44.2324219 C90.5996094,44.9843788 90.8828097,45.3603516 91.4492188,45.3603516 C91.5533859,45.3603516 91.6551102,45.3448895 91.7543945,45.3139648 C91.8536789,45.2830402 91.9578445,45.2293298 92.0668945,45.152832 C92.1759446,45.0763343 92.2931309,44.9729824 92.418457,44.8427734 C92.5437832,44.7125645 92.6845695,44.5481781 92.8408203,44.3496094 L92.8408203,41.0976562 L93.6904297,41.0976562 L93.6904297,46 Z M99.3886719,43.2900391 C99.3886719,43.4104824 99.3870443,43.5113928 99.3837891,43.5927734 C99.3805338,43.6741541 99.3756511,43.7506507 99.3691406,43.8222656 L95.9267578,43.8222656 C95.9267578,44.3235702 96.0667304,44.7084948 96.3466797,44.9770508 C96.626629,45.2456068 97.0302708,45.3798828 97.5576172,45.3798828 C97.7008471,45.3798828 97.8440748,45.3741863 97.9873047,45.362793 C98.1305346,45.3513997 98.2688795,45.3359376 98.4023438,45.3164062 C98.535808,45.2968749 98.6635736,45.2749025 98.7856445,45.2504883 C98.9077155,45.2260741 99.0208328,45.1992189 99.125,45.1699219 L99.125,45.8681641 C98.8938791,45.9332686 98.6326512,45.9861652 98.3413086,46.0268555 C98.049966,46.0675458 97.7480484,46.0878906 97.4355469,46.0878906 C97.0156229,46.0878906 96.6542984,46.030925 96.3515625,45.9169922 C96.0488266,45.8030593 95.8006195,45.6378592 95.6069336,45.4213867 C95.4132477,45.2049143 95.27002,44.9396175 95.1772461,44.6254883 C95.0844722,44.3113591 95.0380859,43.9557312 95.0380859,43.5585938 C95.0380859,43.2135399 95.0877274,42.8872086 95.1870117,42.5795898 C95.2862961,42.2719711 95.4311514,42.0017915 95.621582,41.769043 C95.8120127,41.5362944 96.0455715,41.3515632 96.3222656,41.2148438 C96.5989597,41.0781243 96.9130842,41.0097656 97.2646484,41.0097656 C97.606447,41.0097656 97.9091784,41.063476 98.1728516,41.1708984 C98.4365248,41.2783208 98.6586905,41.4305003 98.8393555,41.6274414 C99.0200204,41.8243825 99.1567378,42.0636379 99.2495117,42.3452148 C99.3422856,42.6267918 99.3886719,42.94173 99.3886719,43.2900391 L99.3886719,43.2900391 Z M98.5048828,43.1679688 C98.5146485,42.9498687 98.4934898,42.7504892 98.4414062,42.5698242 C98.3893227,42.3891593 98.3087571,42.2337246 98.199707,42.1035156 C98.090657,41.9733066 97.9547534,41.8715824 97.7919922,41.7983398 C97.629231,41.7250973 97.4404308,41.6884766 97.2255859,41.6884766 C97.0400381,41.6884766 96.870769,41.7242835 96.7177734,41.7958984 C96.5647779,41.8675134 96.4329433,41.9684238 96.3222656,42.0986328 C96.211588,42.2288418 96.1220707,42.3850902 96.0537109,42.5673828 C95.9853512,42.7496754 95.9430339,42.9498687 95.9267578,43.1679688 L98.5048828,43.1679688 Z M104.62793,44.6621094 C104.62793,44.8346363 104.598633,44.9892571 104.540039,45.1259766 C104.481445,45.262696 104.401693,45.3839513 104.300781,45.4897461 C104.199869,45.5955409 104.082683,45.685872 103.949219,45.7607422 C103.815755,45.8356124 103.673341,45.8974607 103.521973,45.9462891 C103.370605,45.9951174 103.21517,46.0309244 103.055664,46.0537109 C102.896158,46.0764975 102.73991,46.0878906 102.586914,46.0878906 C102.254881,46.0878906 101.949708,46.0732423 101.671387,46.0439453 C101.393065,46.0146483 101.120444,45.9674482 100.853516,45.9023438 L100.853516,45.1210938 C101.139975,45.2024744 101.424803,45.2643227 101.708008,45.3066406 C101.991212,45.3489585 102.272785,45.3701172 102.552734,45.3701172 C102.959637,45.3701172 103.260741,45.3147792 103.456055,45.2041016 C103.651368,45.0934239 103.749023,44.9355479 103.749023,44.7304688 C103.749023,44.6425777 103.733561,44.5636397 103.702637,44.4936523 C103.671712,44.423665 103.61556,44.3569339 103.53418,44.293457 C103.452799,44.2299802 103.326661,44.1640628 103.155762,44.0957031 C102.984862,44.0273434 102.751304,43.9492192 102.455078,43.8613281 C102.233723,43.7962236 102.029461,43.7221684 101.842285,43.6391602 C101.65511,43.5561519 101.493165,43.4576829 101.356445,43.34375 C101.219726,43.2298171 101.112305,43.0963549 101.03418,42.9433594 C100.956054,42.7903638 100.916992,42.6097016 100.916992,42.4013672 C100.916992,42.2646478 100.94873,42.1149097 101.012207,41.9521484 C101.075684,41.7893872 101.183919,41.6380215 101.336914,41.4980469 C101.48991,41.3580722 101.696613,41.2416997 101.957031,41.1489258 C102.217449,41.0561519 102.542967,41.0097656 102.933594,41.0097656 C103.125652,41.0097656 103.338866,41.0203449 103.573242,41.0415039 C103.807618,41.0626629 104.051757,41.0992836 104.305664,41.1513672 L104.305664,41.9082031 C104.038736,41.8430986 103.785646,41.7950848 103.546387,41.7641602 C103.307128,41.7332355 103.09961,41.7177734 102.923828,41.7177734 C102.712239,41.7177734 102.534018,41.7340493 102.38916,41.7666016 C102.244303,41.7991538 102.127116,41.8439125 102.037598,41.9008789 C101.948079,41.9578453 101.883789,42.0245764 101.844727,42.1010742 C101.805664,42.177572 101.786133,42.2597652 101.786133,42.3476562 C101.786133,42.4355473 101.803222,42.5152991 101.837402,42.5869141 C101.871582,42.658529 101.935058,42.7277015 102.027832,42.7944336 C102.120606,42.8611657 102.249999,42.9278968 102.416016,42.9946289 C102.582032,43.061361 102.798501,43.1337887 103.06543,43.2119141 C103.355145,43.2965499 103.599283,43.3852534 103.797852,43.4780273 C103.99642,43.5708012 104.157551,43.6741531 104.28125,43.7880859 C104.404949,43.9020188 104.493652,44.0305982 104.547363,44.1738281 C104.601074,44.317058 104.62793,44.4798168 104.62793,44.6621094 L104.62793,44.6621094 Z M110.194336,45.9316406 C110.002278,45.980469 109.803712,46.0154621 109.598633,46.0366211 C109.393554,46.0577801 109.185222,46.0683594 108.973633,46.0683594 C108.358395,46.0683594 107.899416,45.9292006 107.59668,45.6508789 C107.293944,45.3725572 107.142578,44.9453154 107.142578,44.3691406 L107.142578,41.8105469 L105.770508,41.8105469 L105.770508,41.0976562 L107.142578,41.0976562 L107.142578,39.75 L107.992188,39.5302734 L107.992188,41.0976562 L110.194336,41.0976562 L110.194336,41.8105469 L107.992188,41.8105469 L107.992188,44.3007812 C107.992188,44.6523455 108.085774,44.915201 108.272949,45.0893555 C108.460125,45.26351 108.736001,45.3505859 109.100586,45.3505859 C109.256837,45.3505859 109.427733,45.338379 109.613281,45.3139648 C109.798829,45.2895507 109.992512,45.2513023 110.194336,45.1992188 L110.194336,45.9316406 Z M112.743164,38.7294922 C114.243823,40.1194731 114.994141,41.6656816 114.994141,43.3681641 C114.994141,43.7197283 114.958334,44.084308 114.886719,44.4619141 C114.815104,44.8395201 114.693035,45.2260722 114.520508,45.621582 C114.347981,46.0170918 114.11605,46.4182922 113.824707,46.8251953 C113.533364,47.2320984 113.166343,47.6406229 112.723633,48.0507812 L112.230469,47.5478516 C112.865238,46.9195932 113.338866,46.2636753 113.651367,45.5800781 C113.963869,44.896481 114.120117,44.1803423 114.120117,43.4316406 C114.120117,41.8821537 113.490241,40.4889385 112.230469,39.2519531 L112.743164,38.7294922 Z M117.679688,47.0009766 C117.845704,47.007487 118.006835,46.9928387 118.163086,46.9570312 C118.319337,46.9212238 118.456868,46.8683272 118.575684,46.7983398 C118.694499,46.7283525 118.789713,46.6412766 118.861328,46.5371094 C118.932943,46.4329422 118.96875,46.3141283 118.96875,46.1806641 C118.96875,46.0439446 118.94515,45.9332687 118.897949,45.8486328 C118.850748,45.763997 118.797852,45.6858728 118.739258,45.6142578 C118.680664,45.5426429 118.627767,45.4661462 118.580566,45.3847656 C118.533366,45.303385 118.509766,45.1943366 118.509766,45.0576172 C118.509766,44.9892575 118.522786,44.9176436 118.548828,44.8427734 C118.57487,44.7679033 118.614746,44.6995446 118.668457,44.6376953 C118.722168,44.575846 118.790527,44.5253908 118.873535,44.4863281 C118.956543,44.4472654 119.055012,44.4277344 119.168945,44.4277344 C119.282878,44.4277344 119.39274,44.4513344 119.498535,44.4985352 C119.60433,44.5457359 119.697102,44.6181636 119.776855,44.7158203 C119.856608,44.8134771 119.920084,44.9355461 119.967285,45.0820312 C120.014486,45.2285164 120.038086,45.4010407 120.038086,45.5996094 C120.038086,45.869793 119.988445,46.1293933 119.88916,46.378418 C119.789876,46.6274427 119.641765,46.8479808 119.444824,47.0400391 C119.247883,47.2320973 119.002117,47.3850906 118.70752,47.4990234 C118.412922,47.6129563 118.070314,47.6699219 117.679688,47.6699219 L117.679688,47.0009766 Z M119.208008,41.0097656 C119.30892,41.0097656 119.404947,41.0301105 119.496094,41.0708008 C119.58724,41.1114911 119.666992,41.1660153 119.735352,41.234375 C119.803711,41.3027347 119.858235,41.3824865 119.898926,41.4736328 C119.939616,41.5647791 119.959961,41.6608068 119.959961,41.7617188 C119.959961,41.8658859 119.939616,41.9627274 119.898926,42.0522461 C119.858235,42.1417648 119.803711,42.2207028 119.735352,42.2890625 C119.666992,42.3574222 119.58724,42.4111326 119.496094,42.4501953 C119.404947,42.489258 119.30892,42.5087891 119.208008,42.5087891 C119.103841,42.5087891 119.006999,42.489258 118.91748,42.4501953 C118.827962,42.4111326 118.749024,42.3574222 118.680664,42.2890625 C118.612304,42.2207028 118.558594,42.1417648 118.519531,42.0522461 C118.480469,41.9627274 118.460938,41.8658859 118.460938,41.7617188 C118.460938,41.6608068 118.480469,41.5647791 118.519531,41.4736328 C118.558594,41.3824865 118.612304,41.3027347 118.680664,41.234375 C118.749024,41.1660153 118.827962,41.1114911 118.91748,41.0708008 C119.006999,41.0301105 119.103841,41.0097656 119.208008,41.0097656 L119.208008,41.0097656 Z" id="-console.log(request" fill="#F3CF7F" sketch:type="MSShapeGroup"></path>
                <path d="M7.98144531,53.0976562 L8.7578125,53.0976562 L8.78222656,54.0009766 C9.07194155,53.6526675 9.35758323,53.4003914 9.63916016,53.2441406 C9.92073708,53.0878898 10.2047512,53.0097656 10.4912109,53.0097656 C10.999026,53.0097656 11.3839505,53.174152 11.6459961,53.5029297 C11.9080417,53.8317074 12.029297,54.3199837 12.0097656,54.9677734 L11.1503906,54.9677734 C11.1601563,54.5380838 11.0974942,54.2264007 10.9624023,54.0327148 C10.8273105,53.839029 10.6295586,53.7421875 10.3691406,53.7421875 C10.2552078,53.7421875 10.1404628,53.7625323 10.0249023,53.8032227 C9.90934187,53.843913 9.79052795,53.9090165 9.66845703,53.9985352 C9.54638611,54.0880538 9.41699287,54.2027988 9.28027344,54.3427734 C9.143554,54.4827481 8.99707109,54.6520172 8.84082031,54.8505859 L8.84082031,58 L7.98144531,58 L7.98144531,53.0976562 Z M17.4199219,55.2900391 C17.4199219,55.4104824 17.4182943,55.5113928 17.4150391,55.5927734 C17.4117838,55.6741541 17.4069011,55.7506507 17.4003906,55.8222656 L13.9580078,55.8222656 C13.9580078,56.3235702 14.0979804,56.7084948 14.3779297,56.9770508 C14.657879,57.2456068 15.0615208,57.3798828 15.5888672,57.3798828 C15.7320971,57.3798828 15.8753248,57.3741863 16.0185547,57.362793 C16.1617846,57.3513997 16.3001295,57.3359376 16.4335938,57.3164062 C16.567058,57.2968749 16.6948236,57.2749025 16.8168945,57.2504883 C16.9389655,57.2260741 17.0520828,57.1992189 17.15625,57.1699219 L17.15625,57.8681641 C16.9251291,57.9332686 16.6639012,57.9861652 16.3725586,58.0268555 C16.081216,58.0675458 15.7792984,58.0878906 15.4667969,58.0878906 C15.0468729,58.0878906 14.6855484,58.030925 14.3828125,57.9169922 C14.0800766,57.8030593 13.8318695,57.6378592 13.6381836,57.4213867 C13.4444977,57.2049143 13.30127,56.9396175 13.2084961,56.6254883 C13.1157222,56.3113591 13.0693359,55.9557312 13.0693359,55.5585938 C13.0693359,55.2135399 13.1189774,54.8872086 13.2182617,54.5795898 C13.3175461,54.2719711 13.4624014,54.0017915 13.652832,53.769043 C13.8432627,53.5362944 14.0768215,53.3515632 14.3535156,53.2148438 C14.6302097,53.0781243 14.9443342,53.0097656 15.2958984,53.0097656 C15.637697,53.0097656 15.9404284,53.063476 16.2041016,53.1708984 C16.4677748,53.2783208 16.6899405,53.4305003 16.8706055,53.6274414 C17.0512704,53.8243825 17.1879878,54.0636379 17.2807617,54.3452148 C17.3735356,54.6267918 17.4199219,54.94173 17.4199219,55.2900391 L17.4199219,55.2900391 Z M16.5361328,55.1679688 C16.5458985,54.9498687 16.5247398,54.7504892 16.4726562,54.5698242 C16.4205727,54.3891593 16.3400071,54.2337246 16.230957,54.1035156 C16.121907,53.9733066 15.9860034,53.8715824 15.8232422,53.7983398 C15.660481,53.7250973 15.4716808,53.6884766 15.2568359,53.6884766 C15.0712881,53.6884766 14.902019,53.7242835 14.7490234,53.7958984 C14.5960279,53.8675134 14.4641933,53.9684238 14.3535156,54.0986328 C14.242838,54.2288418 14.1533207,54.3850902 14.0849609,54.5673828 C14.0166012,54.7496754 13.9742839,54.9498687 13.9580078,55.1679688 L16.5361328,55.1679688 Z M22.6591797,56.6621094 C22.6591797,56.8346363 22.6298831,56.9892571 22.5712891,57.1259766 C22.512695,57.262696 22.4329432,57.3839513 22.3320312,57.4897461 C22.2311193,57.5955409 22.113933,57.685872 21.9804688,57.7607422 C21.8470045,57.8356124 21.7045906,57.8974607 21.5532227,57.9462891 C21.4018547,57.9951174 21.2464201,58.0309244 21.0869141,58.0537109 C20.9274081,58.0764975 20.7711596,58.0878906 20.6181641,58.0878906 C20.2861312,58.0878906 19.9809584,58.0732423 19.7026367,58.0439453 C19.424315,58.0146483 19.151694,57.9674482 18.8847656,57.9023438 L18.8847656,57.1210938 C19.1712254,57.2024744 19.4560533,57.2643227 19.7392578,57.3066406 C20.0224624,57.3489585 20.3040351,57.3701172 20.5839844,57.3701172 C20.9908875,57.3701172 21.2919912,57.3147792 21.4873047,57.2041016 C21.6826182,57.0934239 21.7802734,56.9355479 21.7802734,56.7304688 C21.7802734,56.6425777 21.7648114,56.5636397 21.7338867,56.4936523 C21.7029621,56.423665 21.6468103,56.3569339 21.5654297,56.293457 C21.4840491,56.2299802 21.357911,56.1640628 21.1870117,56.0957031 C21.0161124,56.0273434 20.7825536,55.9492192 20.4863281,55.8613281 C20.2649729,55.7962236 20.0607106,55.7221684 19.8735352,55.6391602 C19.6863597,55.5561519 19.5244147,55.4576829 19.3876953,55.34375 C19.2509759,55.2298171 19.1435551,55.0963549 19.0654297,54.9433594 C18.9873043,54.7903638 18.9482422,54.6097016 18.9482422,54.4013672 C18.9482422,54.2646478 18.9799802,54.1149097 19.043457,53.9521484 C19.1069339,53.7893872 19.2151685,53.6380215 19.3681641,53.4980469 C19.5211596,53.3580722 19.7278633,53.2416997 19.9882812,53.1489258 C20.2486992,53.0561519 20.5742168,53.0097656 20.9648438,53.0097656 C21.156902,53.0097656 21.370116,53.0203449 21.6044922,53.0415039 C21.8388684,53.0626629 22.0830065,53.0992836 22.3369141,53.1513672 L22.3369141,53.9082031 C22.0699856,53.8430986 21.8168957,53.7950848 21.5776367,53.7641602 C21.3383777,53.7332355 21.1308603,53.7177734 20.9550781,53.7177734 C20.7434885,53.7177734 20.5652677,53.7340493 20.4204102,53.7666016 C20.2755527,53.7991538 20.1583663,53.8439125 20.0688477,53.9008789 C19.979329,53.9578453 19.9150393,54.0245764 19.8759766,54.1010742 C19.8369139,54.177572 19.8173828,54.2597652 19.8173828,54.3476562 C19.8173828,54.4355473 19.8344725,54.5152991 19.8686523,54.5869141 C19.9028322,54.658529 19.9663081,54.7277015 20.059082,54.7944336 C20.1518559,54.8611657 20.2812492,54.9278968 20.4472656,54.9946289 C20.6132821,55.061361 20.8297513,55.1337887 21.0966797,55.2119141 C21.3863947,55.2965499 21.6305329,55.3852534 21.8291016,55.4780273 C22.0276703,55.5708012 22.1888015,55.6741531 22.3125,55.7880859 C22.4361985,55.9020188 22.5249021,56.0305982 22.5786133,56.1738281 C22.6323245,56.317058 22.6591797,56.4798168 22.6591797,56.6621094 L22.6591797,56.6621094 Z M28.4648438,55.4609375 C28.4648438,55.8971376 28.4038092,56.2779932 28.2817383,56.6035156 C28.1596674,56.9290381 27.991212,57.1992177 27.7763672,57.4140625 C27.5615224,57.6289073 27.3076187,57.7900385 27.0146484,57.8974609 C26.7216782,58.0048833 26.4042986,58.0585938 26.0625,58.0585938 C25.9062492,58.0585938 25.7508146,58.0504558 25.5961914,58.0341797 C25.4415682,58.0179036 25.284506,57.9902346 25.125,57.9511719 L25.125,60.0019531 L24.2753906,60.0019531 L24.2753906,53.0976562 L25.0322266,53.0976562 L25.0859375,53.9179688 C25.3300793,53.5826806 25.5904934,53.3474942 25.8671875,53.2124023 C26.1438816,53.0773105 26.4433578,53.0097656 26.765625,53.0097656 C27.0455743,53.0097656 27.2913401,53.0683588 27.5029297,53.1855469 C27.7145193,53.302735 27.8919264,53.4679351 28.0351562,53.6811523 C28.1783861,53.8943696 28.2858069,54.1515284 28.3574219,54.4526367 C28.4290368,54.753745 28.4648438,55.0898419 28.4648438,55.4609375 L28.4648438,55.4609375 Z M27.5957031,55.5 C27.5957031,55.2428373 27.5769859,55.006837 27.5395508,54.7919922 C27.5021157,54.5771474 27.4427087,54.3932299 27.3613281,54.2402344 C27.2799475,54.0872388 27.1757819,53.9676111 27.0488281,53.8813477 C26.9218744,53.7950842 26.7705087,53.7519531 26.5947266,53.7519531 C26.4873042,53.7519531 26.3782558,53.7690428 26.2675781,53.8032227 C26.1569005,53.8374025 26.0421555,53.8943681 25.9233398,53.9741211 C25.8045241,54.0538741 25.6791999,54.1596673 25.5473633,54.2915039 C25.4155267,54.4233405 25.2747403,54.5869131 25.125,54.7822266 L25.125,57.1601562 C25.2812508,57.2252607 25.4456372,57.2765298 25.6181641,57.3139648 C25.790691,57.3513999 25.9599601,57.3701172 26.1259766,57.3701172 C26.5849632,57.3701172 26.9446602,57.2146825 27.2050781,56.9038086 C27.4654961,56.5929346 27.5957031,56.1250031 27.5957031,55.5 L27.5957031,55.5 Z M34.0410156,55.5097656 C34.0410156,55.8906269 33.9873052,56.2397445 33.8798828,56.5571289 C33.7724604,56.8745133 33.6178396,57.1463205 33.4160156,57.3725586 C33.2141917,57.5987967 32.9684259,57.7745762 32.6787109,57.8999023 C32.3889959,58.0252285 32.0602232,58.0878906 31.6923828,58.0878906 C31.3408186,58.0878906 31.0258803,58.0333664 30.7475586,57.9243164 C30.4692369,57.8152664 30.2332366,57.654949 30.0395508,57.4433594 C29.8458649,57.2317698 29.6977544,56.9697281 29.5952148,56.6572266 C29.4926753,56.344725 29.4414062,55.9850281 29.4414062,55.578125 C29.4414062,55.1972637 29.4951167,54.8497737 29.6025391,54.5356445 C29.7099615,54.2215154 29.8645823,53.9513358 30.0664062,53.7250977 C30.2682302,53.4988595 30.5139959,53.3230801 30.8037109,53.1977539 C31.0934259,53.0724278 31.4221987,53.0097656 31.7900391,53.0097656 C32.1416033,53.0097656 32.4565416,53.0642898 32.7348633,53.1733398 C33.013185,53.2823899 33.2491852,53.4418935 33.4428711,53.6518555 C33.636557,53.8618175 33.7846675,54.1230453 33.887207,54.4355469 C33.9897466,54.7480484 34.0410156,55.1061178 34.0410156,55.5097656 L34.0410156,55.5097656 Z M33.171875,55.5488281 C33.171875,55.2460922 33.1385094,54.9816092 33.0717773,54.7553711 C33.0050452,54.529133 32.9098313,54.3403328 32.7861328,54.1889648 C32.6624343,54.0375969 32.5118824,53.9236657 32.3344727,53.847168 C32.1570629,53.7706702 31.959311,53.7324219 31.7412109,53.7324219 C31.4873034,53.7324219 31.2700204,53.7820633 31.0893555,53.8813477 C30.9086905,53.980632 30.76058,54.1132804 30.6450195,54.2792969 C30.5294591,54.4453133 30.4448245,54.6381825 30.3911133,54.8579102 C30.3374021,55.0776378 30.3105469,55.3079415 30.3105469,55.5488281 C30.3105469,55.851564 30.3439124,56.1168608 30.4106445,56.3447266 C30.4773766,56.5725923 30.5725905,56.7622063 30.6962891,56.9135742 C30.8199876,57.0649422 30.9697257,57.1788733 31.1455078,57.2553711 C31.3212899,57.3318689 31.5198557,57.3701172 31.7412109,57.3701172 C31.9951185,57.3701172 32.2124014,57.3204758 32.3930664,57.2211914 C32.5737314,57.1219071 32.7218419,56.9892586 32.8374023,56.8232422 C32.9529628,56.6572257 33.0375974,56.4643566 33.0913086,56.2446289 C33.1450198,56.0249012 33.171875,55.79297 33.171875,55.5488281 L33.171875,55.5488281 Z M35.2714844,53.0976562 L36.0283203,53.0976562 L36.0625,53.8886719 C36.2057299,53.7194002 36.3440749,53.5786138 36.4775391,53.4663086 C36.6110033,53.3540033 36.7420241,53.2636722 36.8706055,53.1953125 C36.9991868,53.1269528 37.1302077,53.0789389 37.2636719,53.0512695 C37.3971361,53.0236001 37.5354811,53.0097656 37.6787109,53.0097656 C38.1832708,53.0097656 38.5649401,53.1586899 38.8237305,53.456543 C39.0825208,53.754396 39.2119141,54.2027965 39.2119141,54.8017578 L39.2119141,58 L38.3623047,58 L38.3623047,54.8701172 C38.3623047,54.4860007 38.2906908,54.2019866 38.1474609,54.0180664 C38.0042311,53.8341462 37.791017,53.7421875 37.5078125,53.7421875 C37.4036453,53.7421875 37.3019211,53.7576496 37.2026367,53.7885742 C37.1033524,53.8194989 37.0000005,53.8732093 36.8925781,53.949707 C36.7851557,54.0262048 36.6687832,54.1295566 36.543457,54.2597656 C36.4181309,54.3899746 36.2773445,54.5527334 36.1210938,54.7480469 L36.1210938,58 L35.2714844,58 L35.2714844,53.0976562 Z M44.6513672,56.6621094 C44.6513672,56.8346363 44.6220706,56.9892571 44.5634766,57.1259766 C44.5048825,57.262696 44.4251307,57.3839513 44.3242188,57.4897461 C44.2233068,57.5955409 44.1061205,57.685872 43.9726562,57.7607422 C43.839192,57.8356124 43.6967781,57.8974607 43.5454102,57.9462891 C43.3940422,57.9951174 43.2386076,58.0309244 43.0791016,58.0537109 C42.9195956,58.0764975 42.7633471,58.0878906 42.6103516,58.0878906 C42.2783187,58.0878906 41.9731459,58.0732423 41.6948242,58.0439453 C41.4165025,58.0146483 41.1438815,57.9674482 40.8769531,57.9023438 L40.8769531,57.1210938 C41.1634129,57.2024744 41.4482408,57.2643227 41.7314453,57.3066406 C42.0146499,57.3489585 42.2962226,57.3701172 42.5761719,57.3701172 C42.983075,57.3701172 43.2841787,57.3147792 43.4794922,57.2041016 C43.6748057,57.0934239 43.7724609,56.9355479 43.7724609,56.7304688 C43.7724609,56.6425777 43.7569989,56.5636397 43.7260742,56.4936523 C43.6951496,56.423665 43.6389978,56.3569339 43.5576172,56.293457 C43.4762366,56.2299802 43.3500985,56.1640628 43.1791992,56.0957031 C43.0082999,56.0273434 42.7747411,55.9492192 42.4785156,55.8613281 C42.2571604,55.7962236 42.0528981,55.7221684 41.8657227,55.6391602 C41.6785472,55.5561519 41.5166022,55.4576829 41.3798828,55.34375 C41.2431634,55.2298171 41.1357426,55.0963549 41.0576172,54.9433594 C40.9794918,54.7903638 40.9404297,54.6097016 40.9404297,54.4013672 C40.9404297,54.2646478 40.9721677,54.1149097 41.0356445,53.9521484 C41.0991214,53.7893872 41.207356,53.6380215 41.3603516,53.4980469 C41.5133471,53.3580722 41.7200508,53.2416997 41.9804688,53.1489258 C42.2408867,53.0561519 42.5664043,53.0097656 42.9570312,53.0097656 C43.1490895,53.0097656 43.3623035,53.0203449 43.5966797,53.0415039 C43.8310559,53.0626629 44.075194,53.0992836 44.3291016,53.1513672 L44.3291016,53.9082031 C44.0621731,53.8430986 43.8090832,53.7950848 43.5698242,53.7641602 C43.3305652,53.7332355 43.1230478,53.7177734 42.9472656,53.7177734 C42.735676,53.7177734 42.5574552,53.7340493 42.4125977,53.7666016 C42.2677402,53.7991538 42.1505538,53.8439125 42.0610352,53.9008789 C41.9715165,53.9578453 41.9072268,54.0245764 41.8681641,54.1010742 C41.8291014,54.177572 41.8095703,54.2597652 41.8095703,54.3476562 C41.8095703,54.4355473 41.82666,54.5152991 41.8608398,54.5869141 C41.8950197,54.658529 41.9584956,54.7277015 42.0512695,54.7944336 C42.1440434,54.8611657 42.2734367,54.9278968 42.4394531,54.9946289 C42.6054696,55.061361 42.8219388,55.1337887 43.0888672,55.2119141 C43.3785822,55.2965499 43.6227204,55.3852534 43.8212891,55.4780273 C44.0198578,55.5708012 44.180989,55.6741531 44.3046875,55.7880859 C44.428386,55.9020188 44.5170896,56.0305982 44.5708008,56.1738281 C44.624512,56.317058 44.6513672,56.4798168 44.6513672,56.6621094 L44.6513672,56.6621094 Z M50.4082031,55.2900391 C50.4082031,55.4104824 50.4065755,55.5113928 50.4033203,55.5927734 C50.4000651,55.6741541 50.3951823,55.7506507 50.3886719,55.8222656 L46.9462891,55.8222656 C46.9462891,56.3235702 47.0862616,56.7084948 47.3662109,56.9770508 C47.6461603,57.2456068 48.0498021,57.3798828 48.5771484,57.3798828 C48.7203783,57.3798828 48.8636061,57.3741863 49.0068359,57.362793 C49.1500658,57.3513997 49.2884108,57.3359376 49.421875,57.3164062 C49.5553392,57.2968749 49.6831049,57.2749025 49.8051758,57.2504883 C49.9272467,57.2260741 50.0403641,57.1992189 50.1445312,57.1699219 L50.1445312,57.8681641 C49.9134103,57.9332686 49.6521824,57.9861652 49.3608398,58.0268555 C49.0694972,58.0675458 48.7675797,58.0878906 48.4550781,58.0878906 C48.0351542,58.0878906 47.6738296,58.030925 47.3710938,57.9169922 C47.0683579,57.8030593 46.8201507,57.6378592 46.6264648,57.4213867 C46.432779,57.2049143 46.2895512,56.9396175 46.1967773,56.6254883 C46.1040034,56.3113591 46.0576172,55.9557312 46.0576172,55.5585938 C46.0576172,55.2135399 46.1072586,54.8872086 46.206543,54.5795898 C46.3058273,54.2719711 46.4506826,54.0017915 46.6411133,53.769043 C46.8315439,53.5362944 47.0651028,53.3515632 47.3417969,53.2148438 C47.618491,53.0781243 47.9326154,53.0097656 48.2841797,53.0097656 C48.6259783,53.0097656 48.9287096,53.063476 49.1923828,53.1708984 C49.456056,53.2783208 49.6782218,53.4305003 49.8588867,53.6274414 C50.0395517,53.8243825 50.1762691,54.0636379 50.269043,54.3452148 C50.3618169,54.6267918 50.4082031,54.94173 50.4082031,55.2900391 L50.4082031,55.2900391 Z M49.5244141,55.1679688 C49.5341797,54.9498687 49.5130211,54.7504892 49.4609375,54.5698242 C49.4088539,54.3891593 49.3282883,54.2337246 49.2192383,54.1035156 C49.1101883,53.9733066 48.9742847,53.8715824 48.8115234,53.7983398 C48.6487622,53.7250973 48.459962,53.6884766 48.2451172,53.6884766 C48.0595694,53.6884766 47.8903002,53.7242835 47.7373047,53.7958984 C47.5843091,53.8675134 47.4524745,53.9684238 47.3417969,54.0986328 C47.2311192,54.2288418 47.1416019,54.3850902 47.0732422,54.5673828 C47.0048825,54.7496754 46.9625652,54.9498687 46.9462891,55.1679688 L49.5244141,55.1679688 Z M53.6943359,56.4619141 C53.8050136,56.4619141 53.909993,56.4830727 54.0092773,56.5253906 C54.1085617,56.5677085 54.1948239,56.6263017 54.2680664,56.7011719 C54.341309,56.776042 54.3990883,56.863118 54.4414062,56.9624023 C54.4837242,57.0616867 54.5048828,57.1682937 54.5048828,57.2822266 C54.5048828,57.3929042 54.4837242,57.4970698 54.4414062,57.5947266 C54.3990883,57.6923833 54.341309,57.7778317 54.2680664,57.8510742 C54.1948239,57.9243168 54.1085617,57.9820961 54.0092773,58.0244141 C53.909993,58.066732 53.8050136,58.0878906 53.6943359,58.0878906 C53.5804031,58.0878906 53.4746099,58.066732 53.3769531,58.0244141 C53.2792964,57.9820961 53.193848,57.9243168 53.1206055,57.8510742 C53.0473629,57.7778317 52.9895835,57.6923833 52.9472656,57.5947266 C52.9049477,57.4970698 52.8837891,57.3929042 52.8837891,57.2822266 C52.8837891,57.1682937 52.9049477,57.0616867 52.9472656,56.9624023 C52.9895835,56.863118 53.0473629,56.776042 53.1206055,56.7011719 C53.193848,56.6263017 53.2792964,56.5677085 53.3769531,56.5253906 C53.4746099,56.4830727 53.5804031,56.4619141 53.6943359,56.4619141 L53.6943359,56.4619141 Z M61.4042969,55.2900391 C61.4042969,55.4104824 61.4026693,55.5113928 61.3994141,55.5927734 C61.3961588,55.6741541 61.3912761,55.7506507 61.3847656,55.8222656 L57.9423828,55.8222656 C57.9423828,56.3235702 58.0823554,56.7084948 58.3623047,56.9770508 C58.642254,57.2456068 59.0458958,57.3798828 59.5732422,57.3798828 C59.7164721,57.3798828 59.8596998,57.3741863 60.0029297,57.362793 C60.1461596,57.3513997 60.2845045,57.3359376 60.4179688,57.3164062 C60.551433,57.2968749 60.6791986,57.2749025 60.8012695,57.2504883 C60.9233405,57.2260741 61.0364578,57.1992189 61.140625,57.1699219 L61.140625,57.8681641 C60.9095041,57.9332686 60.6482762,57.9861652 60.3569336,58.0268555 C60.065591,58.0675458 59.7636734,58.0878906 59.4511719,58.0878906 C59.0312479,58.0878906 58.6699234,58.030925 58.3671875,57.9169922 C58.0644516,57.8030593 57.8162445,57.6378592 57.6225586,57.4213867 C57.4288727,57.2049143 57.285645,56.9396175 57.1928711,56.6254883 C57.1000972,56.3113591 57.0537109,55.9557312 57.0537109,55.5585938 C57.0537109,55.2135399 57.1033524,54.8872086 57.2026367,54.5795898 C57.3019211,54.2719711 57.4467764,54.0017915 57.637207,53.769043 C57.8276377,53.5362944 58.0611965,53.3515632 58.3378906,53.2148438 C58.6145847,53.0781243 58.9287092,53.0097656 59.2802734,53.0097656 C59.622072,53.0097656 59.9248034,53.063476 60.1884766,53.1708984 C60.4521498,53.2783208 60.6743155,53.4305003 60.8549805,53.6274414 C61.0356454,53.8243825 61.1723628,54.0636379 61.2651367,54.3452148 C61.3579106,54.6267918 61.4042969,54.94173 61.4042969,55.2900391 L61.4042969,55.2900391 Z M60.5205078,55.1679688 C60.5302735,54.9498687 60.5091148,54.7504892 60.4570312,54.5698242 C60.4049477,54.3891593 60.3243821,54.2337246 60.215332,54.1035156 C60.106282,53.9733066 59.9703784,53.8715824 59.8076172,53.7983398 C59.644856,53.7250973 59.4560558,53.6884766 59.2412109,53.6884766 C59.0556631,53.6884766 58.886394,53.7242835 58.7333984,53.7958984 C58.5804029,53.8675134 58.4485683,53.9684238 58.3378906,54.0986328 C58.227213,54.2288418 58.1376957,54.3850902 58.0693359,54.5673828 C58.0009762,54.7496754 57.9586589,54.9498687 57.9423828,55.1679688 L60.5205078,55.1679688 Z M62.7617188,53.0976562 L63.5185547,53.0976562 L63.5527344,53.8886719 C63.6959643,53.7194002 63.8343092,53.5786138 63.9677734,53.4663086 C64.1012376,53.3540033 64.2322585,53.2636722 64.3608398,53.1953125 C64.4894212,53.1269528 64.620442,53.0789389 64.7539062,53.0512695 C64.8873705,53.0236001 65.0257154,53.0097656 65.1689453,53.0097656 C65.6735051,53.0097656 66.0551745,53.1586899 66.3139648,53.456543 C66.5727552,53.754396 66.7021484,54.2027965 66.7021484,54.8017578 L66.7021484,58 L65.8525391,58 L65.8525391,54.8701172 C65.8525391,54.4860007 65.7809252,54.2019866 65.6376953,54.0180664 C65.4944654,53.8341462 65.2812514,53.7421875 64.9980469,53.7421875 C64.8938797,53.7421875 64.7921554,53.7576496 64.6928711,53.7885742 C64.5935867,53.8194989 64.4902349,53.8732093 64.3828125,53.949707 C64.2753901,54.0262048 64.1590176,54.1295566 64.0336914,54.2597656 C63.9083653,54.3899746 63.7675789,54.5527334 63.6113281,54.7480469 L63.6113281,58 L62.7617188,58 L62.7617188,53.0976562 Z M68.0107422,55.6513672 C68.0107422,55.2346984 68.0677078,54.8644222 68.1816406,54.5405273 C68.2955735,54.2166325 68.4575185,53.9431977 68.6674805,53.7202148 C68.8774425,53.497232 69.1297186,53.3279628 69.4243164,53.2124023 C69.7189142,53.0968419 70.0468732,53.0390625 70.4082031,53.0390625 C70.5644539,53.0390625 70.718261,53.048828 70.8696289,53.0683594 C71.0209969,53.0878907 71.1699211,53.1188149 71.3164062,53.1611328 L71.3164062,51.1005859 L72.1708984,51.1005859 L72.1708984,58 L71.4091797,58 L71.3798828,57.0722656 C71.1422514,57.4173194 70.8850925,57.6728507 70.6083984,57.8388672 C70.3317043,58.0048836 70.0322282,58.0878906 69.7099609,58.0878906 C69.4300116,58.0878906 69.1834321,58.0292975 68.9702148,57.9121094 C68.7569976,57.7949213 68.5795906,57.6297211 68.4379883,57.4165039 C68.296386,57.2032867 68.189779,56.9469416 68.1181641,56.6474609 C68.0465491,56.3479803 68.0107422,56.0159523 68.0107422,55.6513672 L68.0107422,55.6513672 Z M68.8798828,55.5976562 C68.8798828,56.1901071 68.9669588,56.6319972 69.1411133,56.9233398 C69.3152678,57.2146824 69.5618474,57.3603516 69.8808594,57.3603516 C70.0957042,57.3603516 70.3227527,57.2643239 70.5620117,57.0722656 C70.8012707,56.8802074 71.0527331,56.5953795 71.3164062,56.2177734 L71.3164062,53.9423828 C71.1764316,53.8772783 71.0218107,53.8276369 70.8525391,53.793457 C70.6832674,53.7592772 70.5156258,53.7421875 70.3496094,53.7421875 C69.8873675,53.7421875 69.5268568,53.8919256 69.2680664,54.1914062 C69.009276,54.4908869 68.8798828,54.9596322 68.8798828,55.5976562 L68.8798828,55.5976562 Z M76.6923828,60.0507812 C75.1917243,58.6608003 74.4414062,57.1243574 74.4414062,55.4414062 C74.4414062,55.0475241 74.4812822,54.6544616 74.5610352,54.262207 C74.6407882,53.8699525 74.7693676,53.47689 74.9467773,53.0830078 C75.1241871,52.6891256 75.3585597,52.2952494 75.6499023,51.9013672 C75.9412449,51.507485 76.2952453,51.1168639 76.7119141,50.7294922 L77.2050781,51.2324219 C75.942051,52.4791729 75.3105469,53.860995 75.3105469,55.3779297 C75.3105469,56.1331418 75.4700505,56.859046 75.7890625,57.5556641 C76.1080745,58.2522821 76.580075,58.9098276 77.2050781,59.5283203 L76.6923828,60.0507812 Z M81.7851562,51.1005859 L81.6435547,53.390625 L80.8037109,53.390625 L80.6669922,51.1005859 L81.7851562,51.1005859 Z M88.9335938,58 L88.0644531,58 L88.0644531,55.0703125 L85.3837891,55.0703125 L85.3837891,58 L84.5146484,58 L84.5146484,51.6181641 L85.3837891,51.6181641 L85.3837891,54.3183594 L88.0644531,54.3183594 L88.0644531,51.6181641 L88.9335938,51.6181641 L88.9335938,58 Z M94.3925781,55.2900391 C94.3925781,55.4104824 94.3909505,55.5113928 94.3876953,55.5927734 C94.3844401,55.6741541 94.3795573,55.7506507 94.3730469,55.8222656 L90.9306641,55.8222656 C90.9306641,56.3235702 91.0706366,56.7084948 91.3505859,56.9770508 C91.6305353,57.2456068 92.0341771,57.3798828 92.5615234,57.3798828 C92.7047533,57.3798828 92.8479811,57.3741863 92.9912109,57.362793 C93.1344408,57.3513997 93.2727858,57.3359376 93.40625,57.3164062 C93.5397142,57.2968749 93.6674799,57.2749025 93.7895508,57.2504883 C93.9116217,57.2260741 94.0247391,57.1992189 94.1289062,57.1699219 L94.1289062,57.8681641 C93.8977853,57.9332686 93.6365574,57.9861652 93.3452148,58.0268555 C93.0538722,58.0675458 92.7519547,58.0878906 92.4394531,58.0878906 C92.0195292,58.0878906 91.6582046,58.030925 91.3554688,57.9169922 C91.0527329,57.8030593 90.8045257,57.6378592 90.6108398,57.4213867 C90.417154,57.2049143 90.2739262,56.9396175 90.1811523,56.6254883 C90.0883784,56.3113591 90.0419922,55.9557312 90.0419922,55.5585938 C90.0419922,55.2135399 90.0916336,54.8872086 90.190918,54.5795898 C90.2902023,54.2719711 90.4350576,54.0017915 90.6254883,53.769043 C90.8159189,53.5362944 91.0494778,53.3515632 91.3261719,53.2148438 C91.602866,53.0781243 91.9169904,53.0097656 92.2685547,53.0097656 C92.6103533,53.0097656 92.9130846,53.063476 93.1767578,53.1708984 C93.440431,53.2783208 93.6625968,53.4305003 93.8432617,53.6274414 C94.0239267,53.8243825 94.1606441,54.0636379 94.253418,54.3452148 C94.3461919,54.6267918 94.3925781,54.94173 94.3925781,55.2900391 L94.3925781,55.2900391 Z M93.5087891,55.1679688 C93.5185547,54.9498687 93.4973961,54.7504892 93.4453125,54.5698242 C93.3932289,54.3891593 93.3126633,54.2337246 93.2036133,54.1035156 C93.0945633,53.9733066 92.9586597,53.8715824 92.7958984,53.7983398 C92.6331372,53.7250973 92.444337,53.6884766 92.2294922,53.6884766 C92.0439444,53.6884766 91.8746752,53.7242835 91.7216797,53.7958984 C91.5686841,53.8675134 91.4368495,53.9684238 91.3261719,54.0986328 C91.2154942,54.2288418 91.1259769,54.3850902 91.0576172,54.5673828 C90.9892575,54.7496754 90.9469402,54.9498687 90.9306641,55.1679688 L93.5087891,55.1679688 Z M97.4199219,51.7988281 L95.9697266,51.7988281 L95.9697266,51.1005859 L98.2792969,51.1005859 L98.2792969,57.2919922 L99.7392578,57.2919922 L99.7392578,58 L95.8085938,58 L95.8085938,57.2919922 L97.4199219,57.2919922 L97.4199219,51.7988281 Z M102.917969,51.7988281 L101.467773,51.7988281 L101.467773,51.1005859 L103.777344,51.1005859 L103.777344,57.2919922 L105.237305,57.2919922 L105.237305,58 L101.306641,58 L101.306641,57.2919922 L102.917969,57.2919922 L102.917969,51.7988281 Z M111.013672,55.5097656 C111.013672,55.8906269 110.959961,56.2397445 110.852539,56.5571289 C110.745117,56.8745133 110.590496,57.1463205 110.388672,57.3725586 C110.186848,57.5987967 109.941082,57.7745762 109.651367,57.8999023 C109.361652,58.0252285 109.032879,58.0878906 108.665039,58.0878906 C108.313475,58.0878906 107.998537,58.0333664 107.720215,57.9243164 C107.441893,57.8152664 107.205893,57.654949 107.012207,57.4433594 C106.818521,57.2317698 106.670411,56.9697281 106.567871,56.6572266 C106.465332,56.344725 106.414062,55.9850281 106.414062,55.578125 C106.414062,55.1972637 106.467773,54.8497737 106.575195,54.5356445 C106.682618,54.2215154 106.837239,53.9513358 107.039062,53.7250977 C107.240886,53.4988595 107.486652,53.3230801 107.776367,53.1977539 C108.066082,53.0724278 108.394855,53.0097656 108.762695,53.0097656 C109.11426,53.0097656 109.429198,53.0642898 109.70752,53.1733398 C109.985841,53.2823899 110.221841,53.4418935 110.415527,53.6518555 C110.609213,53.8618175 110.757324,54.1230453 110.859863,54.4355469 C110.962403,54.7480484 111.013672,55.1061178 111.013672,55.5097656 L111.013672,55.5097656 Z M110.144531,55.5488281 C110.144531,55.2460922 110.111166,54.9816092 110.044434,54.7553711 C109.977701,54.529133 109.882488,54.3403328 109.758789,54.1889648 C109.635091,54.0375969 109.484539,53.9236657 109.307129,53.847168 C109.129719,53.7706702 108.931967,53.7324219 108.713867,53.7324219 C108.45996,53.7324219 108.242677,53.7820633 108.062012,53.8813477 C107.881347,53.980632 107.733236,54.1132804 107.617676,54.2792969 C107.502115,54.4453133 107.417481,54.6381825 107.36377,54.8579102 C107.310058,55.0776378 107.283203,55.3079415 107.283203,55.5488281 C107.283203,55.851564 107.316569,56.1168608 107.383301,56.3447266 C107.450033,56.5725923 107.545247,56.7622063 107.668945,56.9135742 C107.792644,57.0649422 107.942382,57.1788733 108.118164,57.2553711 C108.293946,57.3318689 108.492512,57.3701172 108.713867,57.3701172 C108.967775,57.3701172 109.185058,57.3204758 109.365723,57.2211914 C109.546388,57.1219071 109.694498,56.9892586 109.810059,56.8232422 C109.925619,56.6572257 110.010254,56.4643566 110.063965,56.2446289 C110.117676,56.0249012 110.144531,55.79297 110.144531,55.5488281 L110.144531,55.5488281 Z M122.283203,53.0976562 L121.570312,58 L120.540039,58 L119.832031,55.9492188 L119.69043,55.4511719 L119.529297,55.9785156 L118.850586,58 L117.849609,58 L117.141602,53.0976562 L117.97168,53.0976562 L118.381836,56.4277344 L118.469727,57.1699219 L118.679688,56.5205078 L119.392578,54.3183594 L120.00293,54.3183594 L120.769531,56.4912109 L120.989258,57.140625 L121.0625,56.4521484 L121.443359,53.0976562 L122.283203,53.0976562 Z M127.507812,55.5097656 C127.507812,55.8906269 127.454102,56.2397445 127.34668,56.5571289 C127.239257,56.8745133 127.084636,57.1463205 126.882812,57.3725586 C126.680989,57.5987967 126.435223,57.7745762 126.145508,57.8999023 C125.855793,58.0252285 125.52702,58.0878906 125.15918,58.0878906 C124.807615,58.0878906 124.492677,58.0333664 124.214355,57.9243164 C123.936034,57.8152664 123.700034,57.654949 123.506348,57.4433594 C123.312662,57.2317698 123.164551,56.9697281 123.062012,56.6572266 C122.959472,56.344725 122.908203,55.9850281 122.908203,55.578125 C122.908203,55.1972637 122.961914,54.8497737 123.069336,54.5356445 C123.176758,54.2215154 123.331379,53.9513358 123.533203,53.7250977 C123.735027,53.4988595 123.980793,53.3230801 124.270508,53.1977539 C124.560223,53.0724278 124.888996,53.0097656 125.256836,53.0097656 C125.6084,53.0097656 125.923338,53.0642898 126.20166,53.1733398 C126.479982,53.2823899 126.715982,53.4418935 126.909668,53.6518555 C127.103354,53.8618175 127.251464,54.1230453 127.354004,54.4355469 C127.456543,54.7480484 127.507812,55.1061178 127.507812,55.5097656 L127.507812,55.5097656 Z M126.638672,55.5488281 C126.638672,55.2460922 126.605306,54.9816092 126.538574,54.7553711 C126.471842,54.529133 126.376628,54.3403328 126.25293,54.1889648 C126.129231,54.0375969 125.978679,53.9236657 125.80127,53.847168 C125.62386,53.7706702 125.426108,53.7324219 125.208008,53.7324219 C124.9541,53.7324219 124.736817,53.7820633 124.556152,53.8813477 C124.375487,53.980632 124.227377,54.1132804 124.111816,54.2792969 C123.996256,54.4453133 123.911621,54.6381825 123.85791,54.8579102 C123.804199,55.0776378 123.777344,55.3079415 123.777344,55.5488281 C123.777344,55.851564 123.810709,56.1168608 123.877441,56.3447266 C123.944174,56.5725923 124.039387,56.7622063 124.163086,56.9135742 C124.286784,57.0649422 124.436523,57.1788733 124.612305,57.2553711 C124.788087,57.3318689 124.986653,57.3701172 125.208008,57.3701172 C125.461915,57.3701172 125.679198,57.3204758 125.859863,57.2211914 C126.040528,57.1219071 126.188639,56.9892586 126.304199,56.8232422 C126.41976,56.6572257 126.504394,56.4643566 126.558105,56.2446289 C126.611817,56.0249012 126.638672,55.79297 126.638672,55.5488281 L126.638672,55.5488281 Z M128.938477,53.0976562 L129.714844,53.0976562 L129.739258,54.0009766 C130.028973,53.6526675 130.314614,53.4003914 130.596191,53.2441406 C130.877768,53.0878898 131.161782,53.0097656 131.448242,53.0097656 C131.956057,53.0097656 132.340982,53.174152 132.603027,53.5029297 C132.865073,53.8317074 132.986328,54.3199837 132.966797,54.9677734 L132.107422,54.9677734 C132.117188,54.5380838 132.054525,54.2264007 131.919434,54.0327148 C131.784342,53.839029 131.58659,53.7421875 131.326172,53.7421875 C131.212239,53.7421875 131.097494,53.7625323 130.981934,53.8032227 C130.866373,53.843913 130.747559,53.9090165 130.625488,53.9985352 C130.503417,54.0880538 130.374024,54.2027988 130.237305,54.3427734 C130.100585,54.4827481 129.954102,54.6520172 129.797852,54.8505859 L129.797852,58 L128.938477,58 L128.938477,53.0976562 Z M135.90625,51.7988281 L134.456055,51.7988281 L134.456055,51.1005859 L136.765625,51.1005859 L136.765625,57.2919922 L138.225586,57.2919922 L138.225586,58 L134.294922,58 L134.294922,57.2919922 L135.90625,57.2919922 L135.90625,51.7988281 Z M139.485352,55.6513672 C139.485352,55.2346984 139.542317,54.8644222 139.65625,54.5405273 C139.770183,54.2166325 139.932128,53.9431977 140.14209,53.7202148 C140.352052,53.497232 140.604328,53.3279628 140.898926,53.2124023 C141.193524,53.0968419 141.521483,53.0390625 141.882812,53.0390625 C142.039063,53.0390625 142.19287,53.048828 142.344238,53.0683594 C142.495606,53.0878907 142.644531,53.1188149 142.791016,53.1611328 L142.791016,51.1005859 L143.645508,51.1005859 L143.645508,58 L142.883789,58 L142.854492,57.0722656 C142.616861,57.4173194 142.359702,57.6728507 142.083008,57.8388672 C141.806314,58.0048836 141.506838,58.0878906 141.18457,58.0878906 C140.904621,58.0878906 140.658041,58.0292975 140.444824,57.9121094 C140.231607,57.7949213 140.0542,57.6297211 139.912598,57.4165039 C139.770995,57.2032867 139.664388,56.9469416 139.592773,56.6474609 C139.521158,56.3479803 139.485352,56.0159523 139.485352,55.6513672 L139.485352,55.6513672 Z M140.354492,55.5976562 C140.354492,56.1901071 140.441568,56.6319972 140.615723,56.9233398 C140.789877,57.2146824 141.036457,57.3603516 141.355469,57.3603516 C141.570314,57.3603516 141.797362,57.2643239 142.036621,57.0722656 C142.27588,56.8802074 142.527342,56.5953795 142.791016,56.2177734 L142.791016,53.9423828 C142.651041,53.8772783 142.49642,53.8276369 142.327148,53.793457 C142.157877,53.7592772 141.990235,53.7421875 141.824219,53.7421875 C141.361977,53.7421875 141.001466,53.8919256 140.742676,54.1914062 C140.483885,54.4908869 140.354492,54.9596322 140.354492,55.5976562 L140.354492,55.5976562 Z M147.703125,51.1005859 L147.571289,56.1298828 L146.819336,56.1298828 L146.672852,51.1005859 L147.703125,51.1005859 Z M147.19043,56.7988281 C147.278321,56.7988281 147.361328,56.8159178 147.439453,56.8500977 C147.517579,56.8842775 147.585123,56.9306638 147.64209,56.9892578 C147.699056,57.0478519 147.744629,57.1170243 147.778809,57.1967773 C147.812988,57.2765303 147.830078,57.3603511 147.830078,57.4482422 C147.830078,57.5361333 147.812988,57.6191402 147.778809,57.6972656 C147.744629,57.775391 147.699056,57.8429359 147.64209,57.8999023 C147.585123,57.9568688 147.517579,58.0024412 147.439453,58.0366211 C147.361328,58.070801 147.278321,58.0878906 147.19043,58.0878906 C147.099283,58.0878906 147.014649,58.070801 146.936523,58.0366211 C146.858398,58.0024412 146.790039,57.9568688 146.731445,57.8999023 C146.672851,57.8429359 146.626465,57.775391 146.592285,57.6972656 C146.558105,57.6191402 146.541016,57.5361333 146.541016,57.4482422 C146.541016,57.3603511 146.558105,57.2765303 146.592285,57.1967773 C146.626465,57.1170243 146.672851,57.0478519 146.731445,56.9892578 C146.790039,56.9306638 146.858398,56.8842775 146.936523,56.8500977 C147.014649,56.8159178 147.099283,56.7988281 147.19043,56.7988281 L147.19043,56.7988281 Z M153.259766,51.1005859 L153.118164,53.390625 L152.27832,53.390625 L152.141602,51.1005859 L153.259766,51.1005859 Z M8.78222656,64.7294922 C10.2828851,66.1194731 11.0332031,67.6656816 11.0332031,69.3681641 C11.0332031,69.7197283 10.9973962,70.084308 10.9257812,70.4619141 C10.8541663,70.8395201 10.7320972,71.2260722 10.5595703,71.621582 C10.3870434,72.0170918 10.1551121,72.4182922 9.86376953,72.8251953 C9.57242693,73.2320984 9.20540586,73.6406229 8.76269531,74.0507812 L8.26953125,73.5478516 C8.90430005,72.9195932 9.37792812,72.2636753 9.69042969,71.5800781 C10.0029313,70.896481 10.1591797,70.1803423 10.1591797,69.4316406 C10.1591797,67.8821537 9.52930317,66.4889385 8.26953125,65.2519531 L8.78222656,64.7294922 Z M13.71875,73.0009766 C13.8847665,73.007487 14.0458977,72.9928387 14.2021484,72.9570312 C14.3583992,72.9212238 14.4959304,72.8683272 14.6147461,72.7983398 C14.7335618,72.7283525 14.8287757,72.6412766 14.9003906,72.5371094 C14.9720056,72.4329422 15.0078125,72.3141283 15.0078125,72.1806641 C15.0078125,72.0439446 14.9842125,71.9332687 14.9370117,71.8486328 C14.889811,71.763997 14.8369144,71.6858728 14.7783203,71.6142578 C14.7197263,71.5426429 14.6668297,71.4661462 14.6196289,71.3847656 C14.5724281,71.303385 14.5488281,71.1943366 14.5488281,71.0576172 C14.5488281,70.9892575 14.5618488,70.9176436 14.5878906,70.8427734 C14.6139324,70.7679033 14.6538083,70.6995446 14.7075195,70.6376953 C14.7612307,70.575846 14.8295894,70.5253908 14.9125977,70.4863281 C14.9956059,70.4472654 15.094075,70.4277344 15.2080078,70.4277344 C15.3219407,70.4277344 15.4318029,70.4513344 15.5375977,70.4985352 C15.6433925,70.5457359 15.736165,70.6181636 15.815918,70.7158203 C15.895671,70.8134771 15.9591469,70.9355461 16.0063477,71.0820312 C16.0535484,71.2285164 16.0771484,71.4010407 16.0771484,71.5996094 C16.0771484,71.869793 16.027507,72.1293933 15.9282227,72.378418 C15.8289383,72.6274427 15.6808278,72.8479808 15.4838867,73.0400391 C15.2869456,73.2320973 15.0411799,73.3850906 14.746582,73.4990234 C14.4519842,73.6129563 14.109377,73.6699219 13.71875,73.6699219 L13.71875,73.0009766 Z M15.2470703,67.0097656 C15.3479823,67.0097656 15.44401,67.0301105 15.5351562,67.0708008 C15.6263025,67.1114911 15.7060543,67.1660153 15.7744141,67.234375 C15.8427738,67.3027347 15.897298,67.3824865 15.9379883,67.4736328 C15.9786786,67.5647791 15.9990234,67.6608068 15.9990234,67.7617188 C15.9990234,67.8658859 15.9786786,67.9627274 15.9379883,68.0522461 C15.897298,68.1417648 15.8427738,68.2207028 15.7744141,68.2890625 C15.7060543,68.3574222 15.6263025,68.4111326 15.5351562,68.4501953 C15.44401,68.489258 15.3479823,68.5087891 15.2470703,68.5087891 C15.1429031,68.5087891 15.0460616,68.489258 14.956543,68.4501953 C14.8670243,68.4111326 14.7880863,68.3574222 14.7197266,68.2890625 C14.6513668,68.2207028 14.5976564,68.1417648 14.5585938,68.0522461 C14.5195311,67.9627274 14.5,67.8658859 14.5,67.7617188 C14.5,67.6608068 14.5195311,67.5647791 14.5585938,67.4736328 C14.5976564,67.3824865 14.6513668,67.3027347 14.7197266,67.234375 C14.7880863,67.1660153 14.8670243,67.1114911 14.956543,67.0708008 C15.0460616,67.0301105 15.1429031,67.0097656 15.2470703,67.0097656 L15.2470703,67.0097656 Z M8.11816406,78.9296875 L8.47949219,78.9296875 C9.10775054,78.9296875 9.57486826,79.0769842 9.88085938,79.371582 C10.1868505,79.6661799 10.3398438,80.1129527 10.3398438,80.7119141 L10.3398438,81.8398438 C10.3398438,81.9993498 10.3577472,82.1417637 10.3935547,82.2670898 C10.4293622,82.392416 10.4920243,82.4982092 10.581543,82.5844727 C10.6710616,82.6707361 10.7906894,82.7366534 10.9404297,82.7822266 C11.09017,82.8277997 11.2773426,82.8505859 11.5019531,82.8505859 L11.7119141,82.8505859 L11.7119141,83.5292969 L11.5019531,83.5292969 C11.2643217,83.5292969 11.069825,83.5488279 10.918457,83.5878906 C10.7670891,83.6269533 10.649089,83.6863603 10.5644531,83.7661133 C10.4798173,83.8458663 10.4212241,83.9475905 10.3886719,84.0712891 C10.3561196,84.1949876 10.3398438,84.3414705 10.3398438,84.5107422 L10.3398438,86.2197266 C10.3398438,86.4931654 10.307292,86.739745 10.2421875,86.9594727 C10.177083,87.1792003 10.0712898,87.3663729 9.92480469,87.5209961 C9.77831958,87.6756193 9.58626421,87.7944332 9.34863281,87.8774414 C9.11100142,87.9604496 8.82129077,88.0019531 8.47949219,88.0019531 L8.11816406,88.0019531 L8.11816406,87.3183594 L8.41113281,87.3183594 C9.1630897,87.3183594 9.5390625,86.9521521 9.5390625,86.2197266 L9.5390625,84.5302734 C9.5390625,83.7359986 9.88248354,83.2900396 10.5693359,83.1923828 C9.8759731,83.1175126 9.52929688,82.669926 9.52929688,81.8496094 L9.52929688,80.7314453 C9.52929688,79.9859989 9.15657925,79.6132812 8.41113281,79.6132812 L8.11816406,79.6132812 L8.11816406,78.9296875 Z" id="response.end('Hello-" fill="#F4F4F4" sketch:type="MSShapeGroup"></path>
            </g>
            <g id="Star-1-+-Star-1-Copy" transform="translate(135.000000, 0.000000)" sketch:type="MSShapeGroup">
                <polygon id="Star-1" stroke="#E4B162" fill="#FFD395" points="20.2241648 29.3349784 8.32991829 35.5881538 10.6015172 22.3437157 0.978869674 12.9639525 14.2770415 11.031615 20.2241648 -1.01857286 26.1712881 11.031615 39.4694599 12.9639525 29.8468124 22.3437157 32.1184113 35.5881538 "></polygon>
                <polygon id="Star-1-Copy" stroke="#DFC689" fill="#FFEDC7" points="20.4154868 24.6661606 13.3472687 28.3821428 14.6971782 20.5115663 8.97886967 14.9375931 16.8813777 13.7892914 20.4154868 6.62840434 23.9495958 13.7892914 31.8521039 14.9375931 26.1337953 20.5115663 27.4837049 28.3821428 "></polygon>
            </g>
        </g>
    </g>
</svg>